advent_pro_reg_it.ufo
<glyph name="dollar" format="1">
  <advance width="528"/>
  <unicode hex="0024"/>
  <outline>
    <component base="S"/>
    <contour>
      <point x="223.981" y="-113" type="line"/>
      <point x="421.234" y="815" type="line"/>
      <point x="477.234" y="815" type="line"/>
      <point x="279.981" y="-113" type="line"/>
    </contour>
  </outline>
</glyph>
<glyph name="percent" format="1">
  <advance width="711"/>
  <unicode hex="0025"/>
  <outline>
    <contour>
      <point x="48" y="0" type="line"/>
      <point x="733.365" y="698" type="line"/>
      <point x="797.365" y="698" type="line"/>
      <point x="115" y="0" type="line"/>
    </contour>
    <contour>
      <point x="326.34" y="712" type="curve" smooth="yes"/>
      <point x="406.408" y="712"/>
      <point x="457.664" y="647.661"/>
      <point x="440.307" y="566" type="curve" smooth="yes"/>
      <point x="423.321" y="486.086"/>
      <point x="344.396" y="421"/>
      <point x="264.486" y="421" type="curve" smooth="yes"/>
      <point x="183.731" y="421"/>
      <point x="132.277" y="485.879"/>
      <point x="149.307" y="566" type="curve" smooth="yes"/>
      <point x="166.62" y="647.453"/>
      <point x="245.743" y="712"/>
    </contour>
    <contour>
      <point x="315.5" y="661" type="curve" smooth="yes"/>
      <point x="263.92" y="661"/>
      <point x="211.271" y="617.582"/>
      <point x="200.307" y="566" type="curve" smooth="yes"/>
      <point x="189.658" y="515.901"/>
      <point x="223.629" y="472"/>
      <point x="275.327" y="472" type="curve" smooth="yes"/>
      <point x="326.219" y="472"/>
      <point x="378.67" y="515.958"/>
      <point x="389.307" y="566" type="curve" smooth="yes"/>
      <point x="400.283" y="617.638"/>
      <point x="366.51" y="661"/>
    </contour>
    <contour>
      <point x="592.666" y="276" type="curve" smooth="yes"/>
      <point x="673.669" y="276"/>
      <point x="723.856" y="211.033"/>
      <point x="706.845" y="131" type="curve" smooth="yes"/>
      <point x="689.847" y="51.0296"/>
      <point x="611.844" y="-14"/>
      <point x="531.024" y="-14" type="curve" smooth="yes"/>
      <point x="452.502" y="-14"/>
      <point x="400.816" y="50.8853"/>
      <point x="417.845" y="131" type="curve" smooth="yes"/>
      <point x="434.826" y="210.889"/>
      <point x="514.327" y="276"/>
    </contour>
    <contour>
      <point x="582.038" y="226" type="curve" smooth="yes"/>
      <point x="531.35" y="226"/>
      <point x="480.277" y="184.782"/>
      <point x="468.845" y="131" type="curve" smooth="yes"/>
      <point x="457.707" y="78.601"/>
      <point x="491.058" y="37"/>
      <point x="541.865" y="37" type="curve" smooth="yes"/>
      <point x="595.668" y="37"/>
      <point x="645.736" y="78.739"/>
      <point x="656.845" y="131" type="curve" smooth="yes"/>
      <point x="668.306" y="184.92"/>
      <point x="635.96" y="226"/>
    </contour>
  </outline>
</glyph>
<glyph name="quotesingle" format="1">
  <advance width="266"/>
  <unicode hex="0027"/>
  <outline>
    <contour>
      <point x="248.215" y="702" type="line"/>
      <point x="258.012" y="748.092"/>
      <point x="325.156" y="748.77"/>
      <point x="315.215" y="702" type="curve"/>
      <point x="276.771" y="587" type="line"/>
      <point x="236.771" y="587" type="line"/>
    </contour>
  </outline>
</glyph>
<glyph name="parenright" format="1">
  <advance width="182"/>
  <unicode hex="0029"/>
  <outline>
    <contour>
      <point x="209.234" y="815" type="line"/>
      <point x="271.041" y="777.071"/>
      <point x="294.164" y="725.284"/>
      <point x="272.848" y="625" type="curve" smooth="yes"/>
      <point x="154.879" y="70" type="line" smooth="yes"/>
      <point x="127.712" y="-57.8095"/>
      <point x="69.9672" y="-81.2466"/>
      <point x="10.7058" y="-119" type="curve"/>
      <point x="-0.21708" y="-81" type="line"/>
      <point x="51.9036" y="-49.0089"/>
      <point x="83.8028" y="-0.927771"/>
      <point x="97.1785" y="62" type="curve" smooth="yes"/>
      <point x="137.936" y="253.75"/>
      <point x="178.056" y="442.5"/>
      <point x="218.973" y="635" type="curve" smooth="yes"/>
      <point x="231.819" y="695.436"/>
      <point x="220.967" y="745.945"/>
      <point x="182.369" y="778" type="curve"/>
    </contour>
  </outline>
</glyph>
<glyph name="plus" format="1">
  <advance width="378"/>
  <unicode hex="002B"/>
  <outline>
    <contour>
      <point x="328.23" y="528" type="line"/>
      <point x="300.385" y="397" type="line"/>
      <point x="431.385" y="397" type="line"/>
      <point x="419.694" y="342" type="line"/>
      <point x="288.694" y="342" type="line"/>
      <point x="260.424" y="209" type="line"/>
      <point x="205.424" y="209" type="line"/>
      <point x="233.694" y="342" type="line"/>
      <point x="100.694" y="342" type="line"/>
      <point x="112.385" y="397" type="line"/>
      <point x="245.385" y="397" type="line"/>
      <point x="273.23" y="528" type="line"/>
    </contour>
  </outline>
</glyph>
<glyph name="one" format="1">
  <advance width="235"/>
  <unicode hex="0031"/>
  <outline>
    <contour>
      <point x="144.785" y="620" type="line"/>
      <point x="142.149" y="619.75"/>
      <point x="230.385" y="641.25"/>
      <point x="286.364" y="698" type="curve"/>
      <point x="340.364" y="698" type="line"/>
      <point x="192" y="0" type="line"/>
      <point x="139" y="0" type="line"/>
      <point x="273.336" y="632" type="line"/>
      <point x="245.507" y="613.998"/>
      <point x="184.581" y="584.912"/>
      <point x="150.495" y="581" type="curve"/>
    </contour>
  </outline>
</glyph>
<glyph name="five" format="1">
  <advance width="439"/>
  <unicode hex="0035"/>
  <outline>
    <contour>
      <point x="203.361" y="411" type="line"/>
      <point x="256.361" y="411" type="line" smooth="yes"/>
      <point x="387.931" y="411"/>
      <point x="484.065" y="343.744"/>
      <point x="453.086" y="198" type="curve" smooth="yes"/>
      <point x="431.405" y="96"/>
      <point x="331.578" y="-12"/>
      <point x="198.449" y="-12" type="curve"/>
      <point x="110.674" y="-13.5556"/>
      <point x="36.7025" y="43.5555"/>
      <point x="36.9274" y="42" type="curve"/>
      <point x="67.9175" y="89" type="line"/>
      <point x="67.653" y="90.5"/>
      <point x="119.708" y="41.75"/>
      <point x="207.352" y="44" type="curve"/>
      <point x="287.149" y="44"/>
      <point x="377.348" y="105.141"/>
      <point x="397.511" y="200" type="curve" smooth="yes"/>
      <point x="416.117" y="287.535"/>
      <point x="365.38" y="355"/>
      <point x="244.458" y="355" type="curve" smooth="yes"/>
      <point x="129.458" y="355" type="line"/>
      <point x="239.364" y="698" type="line"/>
      <point x="504.364" y="698" type="line"/>
      <point x="492.249" y="641" type="line"/>
      <point x="276.249" y="641" type="line"/>
    </contour>
  </outline>
</glyph>
<glyph name="six" format="1">
  <advance width="482"/>
  <unicode hex="0036"/>
  <outline>
    <contour>
      <point x="408.312" y="646" type="line" smooth="yes"/>
      <point x="291" y="646"/>
      <point x="206" y="565"/>
      <point x="182.288" y="453" type="curve" smooth="yes"/>
      <point x="159.545" y="346" type="line"/>
      <point x="211.123" y="391.823"/>
      <point x="269.125" y="414"/>
      <point x="328.998" y="414" type="curve" smooth="yes"/>
      <point x="450" y="414"/>
      <point x="524" y="320"/>
      <point x="498.936" y="202" type="curve" smooth="yes"/>
      <point x="474" y="86"/>
      <point x="361" y="-10"/>
      <point x="241.874" y="-10" type="curve" smooth="yes"/>
      <point x="122" y="-10"/>
      <point x="49" y="86"/>
      <point x="73.9364" y="202" type="curve" smooth="yes"/>
      <point x="128.776" y="460" type="line" smooth="yes"/>
      <point x="159" y="600"/>
      <point x="280" y="698"/>
      <point x="423.365" y="698" type="curve" smooth="yes"/>
      <point x="458.365" y="698" type="line"/>
      <point x="447.312" y="646" type="line"/>
    </contour>
    <contour>
      <point x="320.308" y="359" type="curve" smooth="yes"/>
      <point x="234.414" y="359"/>
      <point x="147.047" y="287.205"/>
      <point x="128.936" y="202" type="curve" smooth="yes"/>
      <point x="110.783" y="116.595"/>
      <point x="167.527" y="45"/>
      <point x="253.565" y="45" type="curve" smooth="yes"/>
      <point x="338.798" y="45"/>
      <point x="425.819" y="116.764"/>
      <point x="443.936" y="202" type="curve" smooth="yes"/>
      <point x="462.083" y="287.374"/>
      <point x="405.685" y="359"/>
    </contour>
  </outline>
</glyph>
<glyph name="nine" format="1">
  <advance width="480"/>
  <unicode hex="0039"/>
  <outline>
    <contour>
      <point x="385.277" y="707" type="curve" smooth="yes"/>
      <point x="444.611" y="707"/>
      <point x="490.289" y="686.667"/>
      <point x="522.312" y="646" type="curve" smooth="yes"/>
      <point x="554.859" y="604.667"/>
      <point x="564.827" y="554.333"/>
      <point x="552.216" y="495" type="curve" smooth="yes"/>
      <point x="497.588" y="238" type="line" smooth="yes"/>
      <point x="485.969" y="183.333"/>
      <point x="458.441" y="130.667"/>
      <point x="413.855" y="84" type="curve" smooth="yes"/>
      <point x="368.702" y="34.6667"/>
      <point x="291.787" y="-1"/>
      <point x="203.787" y="-1" type="curve" smooth="yes"/>
      <point x="168.787" y="-1" type="line"/>
      <point x="180.478" y="54" type="line"/>
      <point x="218.478" y="54" type="line" smooth="yes"/>
      <point x="269.145" y="54"/>
      <point x="315.879" y="70"/>
      <point x="358.681" y="102" type="curve" smooth="yes"/>
      <point x="403.099" y="135.333"/>
      <point x="430.756" y="182.333"/>
      <point x="444.076" y="245" type="curve" smooth="yes"/>
      <point x="466.82" y="352" type="line"/>
      <point x="414.884" y="307.5"/>
      <point x="359.305" y="284"/>
      <point x="298.366" y="284" type="curve" smooth="yes"/>
      <point x="237.033" y="284"/>
      <point x="191.163" y="305"/>
      <point x="158.332" y="345" type="curve" smooth="yes"/>
      <point x="125.784" y="386.333"/>
      <point x="115.746" y="436.333"/>
      <point x="128.216" y="495" type="curve" smooth="yes"/>
      <point x="140.827" y="554.333"/>
      <point x="172.193" y="604.667"/>
      <point x="222.312" y="646" type="curve" smooth="yes"/>
      <point x="272.956" y="686.667"/>
      <point x="327.278" y="707"/>
    </contour>
    <contour>
      <point x="373.587" y="652" type="curve" smooth="yes"/>
      <point x="287.675" y="652"/>
      <point x="202.806" y="582.461"/>
      <point x="184.216" y="495" type="curve" smooth="yes"/>
      <point x="165.919" y="408.922"/>
      <point x="220.974" y="339"/>
      <point x="307.057" y="339" type="curve" smooth="yes"/>
      <point x="394.513" y="339"/>
      <point x="478.954" y="409.085"/>
      <point x="497.216" y="495" type="curve" smooth="yes"/>
      <point x="515.841" y="582.624"/>
      <point x="461.214" y="652"/>
    </contour>
  </outline>
</glyph>
<glyph name="at" format="1">
  <advance width="717"/>
  <unicode hex="0040"/>
  <outline>
    <contour>
      <point x="783.65" y="450" type="line"/>
      <point x="758.308" y="439.496"/>
      <point x="742.736" y="417.47"/>
      <point x="734.771" y="380" type="curve" smooth="yes"/>
      <point x="691.135" y="170" type="line" smooth="yes"/>
      <point x="655.401" y="1.88504"/>
      <point x="488" y="-66"/>
      <point x="325.971" y="-66" type="curve" smooth="yes"/>
      <point x="152.271" y="-66"/>
      <point x="36.5436" y="23.4697"/>
      <point x="73.1213" y="195.554" type="curve" smooth="yes"/>
      <point x="102.844" y="338" type="line" smooth="yes"/>
      <point x="132.303" y="476.594"/>
      <point x="245" y="577"/>
      <point x="406.645" y="577" type="curve" smooth="yes"/>
      <point x="559.808" y="577"/>
      <point x="614.539" y="510.469"/>
      <point x="608" y="442" type="curve"/>
      <point x="670.95" y="442" type="line"/>
      <point x="656" y="388" type="line"/>
      <point x="600.472" y="388" type="line"/>
      <point x="535" y="76" type="line"/>
      <point x="535.984" y="75.8954"/>
      <point x="437.002" y="61.7917"/>
      <point x="360.966" y="61" type="curve" smooth="yes"/>
      <point x="265" y="60"/>
      <point x="172.714" y="83.338"/>
      <point x="204.526" y="233" type="curve" smooth="yes"/>
      <point x="216.216" y="288" type="line" smooth="yes"/>
      <point x="240.993" y="404.565"/>
      <point x="316.519" y="442"/>
      <point x="389.95" y="442" type="curve" smooth="yes"/>
      <point x="555.95" y="442" type="line"/>
      <point x="565.702" y="495.313"/>
      <point x="506.761" y="529"/>
      <point x="404.034" y="529" type="curve" smooth="yes"/>
      <point x="292" y="529"/>
      <point x="189.893" y="465.256"/>
      <point x="163.482" y="341" type="curve" smooth="yes"/>
      <point x="131.173" y="189" type="line" smooth="yes"/>
      <point x="100.32" y="43.8481"/>
      <point x="187.145" y="-12"/>
      <point x="339" y="-12" type="curve" smooth="yes"/>
      <point x="465.112" y="-12"/>
      <point x="606.423" y="34.9219"/>
      <point x="633.434" y="162" type="curve" smooth="yes"/>
      <point x="676.158" y="363" type="line" smooth="yes"/>
      <point x="690.944" y="432.56"/>
      <point x="716.899" y="474.713"/>
      <point x="777.365" y="491" type="curve"/>
    </contour>
    <contour>
      <point x="375.472" y="388" type="line" smooth="yes"/>
      <point x="345.663" y="388"/>
      <point x="289.37" y="382.818"/>
      <point x="268.579" y="285" type="curve" smooth="yes"/>
      <point x="256.25" y="227" type="line" smooth="yes"/>
      <point x="238.077" y="141.503"/>
      <point x="259" y="111"/>
      <point x="351.594" y="111" type="curve" smooth="yes"/>
      <point x="422" y="111"/>
      <point x="493.156" y="119.889"/>
      <point x="492.294" y="119" type="curve"/>
      <point x="549.472" y="388" type="line"/>
    </contour>
  </outline>
</glyph>
<glyph name="A" format="1">
  <advance width="545"/>
  <unicode hex="0041"/>
  <outline>
    <contour>
      <point x="525" y="0" type="line"/>
      <point x="466" y="0" type="line"/>
      <point x="437.864" y="244" type="line"/>
      <point x="210.864" y="244" type="line"/>
      <point x="81" y="0" type="line"/>
      <point x="21" y="0" type="line"/>
      <point x="393.364" y="698" type="line"/>
      <point x="446.364" y="698" type="line"/>
    </contour>
    <contour>
      <point x="237.554" y="299" type="line"/>
      <point x="434.554" y="299" type="line"/>
      <point x="401.085" y="612" type="line"/>
    </contour>
  </outline>
</glyph>
<glyph name="B" format="1">
  <advance width="505"/>
  <unicode hex="0042"/>
  <outline>
    <contour>
      <point x="400" y="700" type="line" smooth="yes"/>
      <point x="516" y="700"/>
      <point x="575" y="643"/>
      <point x="551" y="528" type="curve" smooth="yes"/>
      <point x="538" y="468"/>
      <point x="504" y="420"/>
      <point x="454" y="391" type="curve"/>
      <point x="507" y="365"/>
      <point x="539" y="305"/>
      <point x="519" y="209" type="curve" smooth="yes"/>
      <point x="493" y="84"/>
      <point x="411" y="0"/>
      <point x="272" y="0" type="curve" smooth="yes"/>
      <point x="41" y="0" type="line"/>
      <point x="190" y="700" type="line"/>
    </contour>
    <contour>
      <point x="349" y="412" type="line" smooth="yes"/>
      <point x="430" y="412"/>
      <point x="478" y="459"/>
      <point x="493" y="530" type="curve" smooth="yes"/>
      <point x="510" y="608"/>
      <point x="476" y="647"/>
      <point x="391" y="647" type="curve" smooth="yes"/>
      <point x="235" y="647" type="line"/>
      <point x="185" y="412" type="line"/>
    </contour>
    <contour>
      <point x="282" y="53" type="line" smooth="yes"/>
      <point x="377" y="53"/>
      <point x="437" y="106"/>
      <point x="460" y="213" type="curve" smooth="yes"/>
      <point x="476" y="288"/>
      <point x="448" y="357"/>
      <point x="362" y="357" type="curve" smooth="yes"/>
      <point x="173" y="357" type="line"/>
      <point x="109" y="53" type="line"/>
    </contour>
  </outline>
</glyph>
<glyph name="F" format="1">
  <advance width="390"/>
  <unicode hex="0046"/>
  <outline>
    <contour>
      <point x="522.365" y="698" type="line"/>
      <point x="511.099" y="645" type="line"/>
      <point x="234.099" y="645" type="line"/>
      <point x="184.361" y="411" type="line"/>
      <point x="375.361" y="411" type="line"/>
      <point x="351" y="356" type="line"/>
      <point x="172.67" y="356" type="line"/>
      <point x="97" y="0" type="line"/>
      <point x="41" y="0" type="line"/>
      <point x="189.364" y="698" type="line"/>
    </contour>
  </outline>
</glyph>
<glyph name="N" format="1">
  <advance width="575"/>
  <unicode hex="004E"/>
  <outline>
    <contour>
      <point x="680.395" y="698" type="line"/>
      <point x="532" y="0" type="line"/>
      <point x="476" y="0" type="line"/>
      <point x="223.497" y="595" type="line"/>
      <point x="97" y="0" type="line"/>
      <point x="41" y="0" type="line"/>
      <point x="189.395" y="698" type="line"/>
      <point x="245.395" y="698" type="line"/>
      <point x="497.685" y="102" type="line"/>
      <point x="624.395" y="698" type="line"/>
    </contour>
  </outline>
</glyph>
<glyph name="Q" format="1">
  <advance width="490"/>
  <unicode hex="0051"/>
  <outline>
    <component base="O"/>
    <contour>
      <point x="280.628" y="50" type="line" smooth="yes"/>
      <point x="263.075" y="-32.5783"/>
      <point x="301.875" y="-61"/>
      <point x="382.034" y="-61" type="curve"/>
      <point x="366.256" y="-107" type="line"/>
      <point x="250.055" y="-107"/>
      <point x="200.918" y="-61.548"/>
      <point x="224.84" y="51" type="curve" smooth="yes"/>
      <point x="250.772" y="173" type="line"/>
      <point x="306.772" y="173" type="line"/>
    </contour>
  </outline>
</glyph>
<glyph name="R" format="1">
  <advance width="508"/>
  <unicode hex="0052"/>
  <outline>
    <contour>
      <point x="424.395" y="698" type="line" smooth="yes"/>
      <point x="551.269" y="698"/>
      <point x="610.664" y="642.823"/>
      <point x="574.347" y="472" type="curve" smooth="yes"/>
      <point x="550.253" y="358.667"/>
      <point x="507.313" y="294.667"/>
      <point x="438.126" y="264" type="curve"/>
      <point x="478" y="0" type="line"/>
      <point x="422" y="0" type="line"/>
      <point x="383.937" y="249" type="line"/>
      <point x="367.087" y="245"/>
      <point x="347.874" y="244"/>
      <point x="327.874" y="244" type="curve" smooth="yes"/>
      <point x="148.874" y="244" type="line"/>
      <point x="97" y="0" type="line"/>
      <point x="41" y="0" type="line"/>
      <point x="189.395" y="698" type="line"/>
    </contour>
    <contour>
      <point x="344.567" y="299" type="line" smooth="yes"/>
      <point x="420.151" y="299"/>
      <point x="485.887" y="319.317"/>
      <point x="518.347" y="472" type="curve" smooth="yes"/>
      <point x="548.416" y="613.433"/>
      <point x="495.96" y="645"/>
      <point x="418.127" y="645" type="curve" smooth="yes"/>
      <point x="234.127" y="645" type="line"/>
      <point x="160.567" y="299" type="line"/>
    </contour>
  </outline>
</glyph>
<glyph name="T" format="1">
  <advance width="416"/>
  <unicode hex="0054"/>
  <outline>
    <contour>
      <point x="369.765" y="648" type="line"/>
      <point x="232" y="0" type="line"/>
      <point x="177" y="0" type="line"/>
      <point x="314.765" y="648" type="line"/>
      <point x="144.765" y="648" type="line"/>
      <point x="155.395" y="698" type="line"/>
      <point x="556.395" y="698" type="line"/>
      <point x="545.765" y="648" type="line"/>
    </contour>
  </outline>
</glyph>
<glyph name="V" format="1">
  <advance width="509"/>
  <unicode hex="0056"/>
  <outline>
    <contour>
      <point x="163.364" y="698" type="line"/>
      <point x="223.364" y="698" type="line"/>
      <point x="267.666" y="69" type="line"/>
      <point x="580.364" y="698" type="line"/>
      <point x="639.364" y="698" type="line"/>
      <point x="292" y="0" type="line"/>
      <point x="215" y="0" type="line"/>
    </contour>
  </outline>
</glyph>
<glyph name="W" format="1">
  <advance width="731"/>
  <unicode hex="0057"/>
  <outline>
    <contour>
      <point x="534" y="698" type="line"/>
      <point x="534" y="92" type="line"/>
      <point x="800" y="698" type="line"/>
      <point x="859" y="698" type="line"/>
      <point x="548" y="0" type="line"/>
      <point x="478" y="0" type="line"/>
      <point x="478" y="574" type="line"/>
      <point x="257" y="0" type="line"/>
      <point x="174" y="0" type="line"/>
      <point x="174" y="698" type="line"/>
      <point x="230" y="698" type="line"/>
      <point x="230" y="69" type="line"/>
      <point x="464" y="698" type="line"/>
    </contour>
  </outline>
</glyph>
<glyph name="bracketleft" format="1">
  <advance width="222"/>
  <unicode hex="005B"/>
  <outline>
    <contour>
      <point x="259.543" y="760" type="line"/>
      <point x="85.4592" y="-59" type="line"/>
      <point x="188.334" y="-69" type="line"/>
      <point x="178.981" y="-113" type="line"/>
      <point x="17.9811" y="-113" type="line"/>
      <point x="215.234" y="815" type="line"/>
      <point x="376.234" y="815" type="line"/>
      <point x="366.669" y="770" type="line"/>
    </contour>
  </outline>
</glyph>
<glyph name="grave" format="1">
  <advance width="266"/>
  <unicode hex="0060"/>
  <outline>
    <contour>
      <point x="264.978" y="715" type="curve"/>
      <point x="281.234" y="608" type="line"/>
      <point x="245.234" y="608" type="line"/>
      <point x="209.026" y="687" type="line"/>
      <point x="200.144" y="701.667"/>
      <point x="205.912" y="725.667"/>
      <point x="225.229" y="735" type="curve" smooth="yes"/>
      <point x="246.163" y="745.667"/>
      <point x="263.612" y="733.667"/>
    </contour>
  </outline>
</glyph>
<glyph name="e" format="1">
  <advance width="421"/>
  <unicode hex="0065"/>
  <outline>
    <contour>
      <point x="115.27" y="133" type="line" smooth="yes"/>
      <point x="101" y="64"/>
      <point x="140" y="36"/>
      <point x="205.652" y="36" type="curve" smooth="yes"/>
      <point x="254.985" y="36"/>
      <point x="304.245" y="51.3333"/>
      <point x="360.579" y="78" type="curve"/>
      <point x="373.439" y="35" type="line"/>
      <point x="316.254" y="4.33333"/>
      <point x="251" y="-12"/>
      <point x="200.449" y="-12" type="curve" smooth="yes"/>
      <point x="99" y="-12"/>
      <point x="36" y="22"/>
      <point x="59.27" y="133" type="curve" smooth="yes"/>
      <point x="102.844" y="338" type="line" smooth="yes"/>
      <point x="126" y="448"/>
      <point x="205" y="508"/>
      <point x="314" y="508" type="curve" smooth="yes"/>
      <point x="423" y="508"/>
      <point x="486" y="449"/>
      <point x="463.482" y="341" type="curve" smooth="yes"/>
      <point x="435.849" y="211" type="line"/>
      <point x="128.449" y="195" type="line"/>
    </contour>
    <contour>
      <point x="408.97" y="348" type="line" smooth="yes"/>
      <point x="423" y="417"/>
      <point x="382" y="461"/>
      <point x="311.989" y="461" type="curve" smooth="yes"/>
      <point x="231" y="461"/>
      <point x="177" y="416"/>
      <point x="158.632" y="337" type="curve" smooth="yes"/>
      <point x="140.139" y="250" type="line"/>
      <point x="390.477" y="261" type="line"/>
    </contour>
  </outline>
</glyph>
<glyph name="h" format="1">
  <advance width="443"/>
  <unicode hex="0068"/>
  <outline>
    <contour>
      <point x="195.839" y="465" type="line"/>
      <point x="240.174" y="491.667"/>
      <point x="294.645" y="508"/>
      <point x="343.979" y="508" type="curve" smooth="yes"/>
      <point x="454.298" y="508"/>
      <point x="505.639" y="449.946"/>
      <point x="483.332" y="345" type="curve" smooth="yes"/>
      <point x="410" y="0" type="line"/>
      <point x="354" y="0" type="line"/>
      <point x="426.694" y="342" type="line" smooth="yes"/>
      <point x="446.023" y="432.933"/>
      <point x="385.802" y="458"/>
      <point x="322.351" y="458" type="curve" smooth="yes"/>
      <point x="277.018" y="458"/>
      <point x="233.275" y="446.667"/>
      <point x="187.124" y="424" type="curve"/>
      <point x="97" y="0" type="line"/>
      <point x="41" y="0" type="line"/>
      <point x="189.364" y="698" type="line"/>
      <point x="245.364" y="698" type="line"/>
    </contour>
  </outline>
</glyph>
<glyph name="i" format="1">
  <advance width="150"/>
  <unicode hex="0069"/>
  <outline>
    <contour>
      <point x="38" y="0" type="line"/>
      <point x="144.066" y="499" type="line"/>
      <point x="200.066" y="499" type="line"/>
      <point x="94" y="0" type="line"/>
    </contour>
    <contour>
      <point x="225.49" y="708" type="curve" smooth="yes"/>
      <point x="242.823" y="708"/>
      <point x="255.231" y="692.667"/>
      <point x="251.263" y="674" type="curve" smooth="yes"/>
      <point x="247.579" y="656.667"/>
      <point x="228.582" y="641"/>
      <point x="211.249" y="641" type="curve" smooth="yes"/>
      <point x="192.582" y="641"/>
      <point x="180.579" y="656.667"/>
      <point x="184.263" y="674" type="curve" smooth="yes"/>
      <point x="188.231" y="692.667"/>
      <point x="206.823" y="708"/>
    </contour>
  </outline>
</glyph>
<glyph name="o" format="1">
  <advance width="429"/>
  <unicode hex="006F"/>
  <outline>
    <contour>
      <point x="437.11" y="184" type="line" smooth="yes"/>
      <point x="412.676" y="69.0433"/>
      <point x="336.587" y="-10"/>
      <point x="214.874" y="-10" type="curve" smooth="yes"/>
      <point x="90.3405" y="-10"/>
      <point x="45.2093" y="76.2586"/>
      <point x="68.1104" y="184" type="curve" smooth="yes"/>
      <point x="95.9553" y="315" type="line" smooth="yes"/>
      <point x="122.879" y="441.667"/>
      <point x="204.737" y="510"/>
      <point x="323.404" y="510" type="curve" smooth="yes"/>
      <point x="442.071" y="510"/>
      <point x="490.746" y="436.333"/>
      <point x="464.955" y="315" type="curve" smooth="yes"/>
    </contour>
    <contour>
      <point x="408.955" y="315" type="line" smooth="yes"/>
      <point x="429.361" y="411"/>
      <point x="401.443" y="460"/>
      <point x="314.776" y="460" type="curve" smooth="yes"/>
      <point x="226.776" y="460"/>
      <point x="172.361" y="411"/>
      <point x="151.955" y="315" type="curve" smooth="yes"/>
      <point x="121.985" y="174" type="line" smooth="yes"/>
      <point x="105.086" y="94.4956"/>
      <point x="144.689" y="40"/>
      <point x="225.502" y="40" type="curve" smooth="yes"/>
      <point x="308.815" y="40"/>
      <point x="361.617" y="92.2896"/>
      <point x="378.985" y="174" type="curve" smooth="yes"/>
    </contour>
  </outline>
</glyph>
<glyph name="t" format="1">
  <advance width="240"/>
  <unicode hex="0074"/>
  <outline>
    <contour>
      <point x="123.063" y="132" type="line" smooth="yes"/>
      <point x="111.725" y="78.6667"/>
      <point x="126.496" y="44.6667"/>
      <point x="167.378" y="30" type="curve"/>
      <point x="141.236" y="-13" type="line"/>
      <point x="72.4383" y="8.33333"/>
      <point x="50.3387" y="53.3333"/>
      <point x="67.0632" y="132" type="curve" smooth="yes"/>
      <point x="187.395" y="698" type="line"/>
      <point x="243.395" y="698" type="line"/>
      <point x="201.087" y="499" type="line"/>
      <point x="321.087" y="499" type="line"/>
      <point x="286.032" y="447" type="line"/>
      <point x="190.032" y="447" type="line"/>
    </contour>
  </outline>
</glyph>
<glyph name="x" format="1">
  <advance width="436"/>
  <unicode hex="0078"/>
  <outline>
    <contour>
      <point x="282.554" y="299" type="line"/>
      <point x="450.853" y="498" type="line"/>
      <point x="512.853" y="498" type="line"/>
      <point x="303.714" y="248" type="line"/>
      <point x="407" y="0" type="line"/>
      <point x="341" y="0" type="line"/>
      <point x="260.874" y="197" type="line"/>
      <point x="96" y="0" type="line"/>
      <point x="30" y="0" type="line"/>
      <point x="238.714" y="248" type="line"/>
      <point x="135.853" y="498" type="line"/>
      <point x="199.853" y="498" type="line"/>
    </contour>
  </outline>
</glyph>
<glyph name="braceright" format="1">
  <advance width="262"/>
  <unicode hex="007D"/>
  <outline>
    <contour>
      <point x="217.296" y="820" type="line"/>
      <point x="220.895" y="817.987"/>
      <point x="319.637" y="788.669"/>
      <point x="285.485" y="628" type="curve" smooth="yes"/>
      <point x="261.467" y="515" type="line" smooth="yes"/>
      <point x="249.455" y="458.488"/>
      <point x="244.279" y="408.396"/>
      <point x="298.52" y="360" type="curve" smooth="yes"/>
      <point x="307.82" y="352" type="line"/>
      <point x="295.119" y="344" type="line" smooth="yes"/>
      <point x="220.047" y="295.437"/>
      <point x="203.95" y="244.408"/>
      <point x="192.173" y="189" type="curve" smooth="yes"/>
      <point x="168.154" y="76" type="line" smooth="yes"/>
      <point x="134.143" y="-84.0121"/>
      <point x="22.8345" y="-114.422"/>
      <point x="17.1308" y="-117" type="curve"/>
      <point x="5.75862" y="-67" type="line"/>
      <point x="38.1217" y="-51.1814"/>
      <point x="93.2871" y="-12.7626"/>
      <point x="112.154" y="76" type="curve" smooth="yes"/>
      <point x="136.173" y="189" type="line" smooth="yes"/>
      <point x="148.076" y="244.997"/>
      <point x="165.505" y="299.808"/>
      <point x="236.82" y="352" type="curve"/>
      <point x="187.755" y="404.125"/>
      <point x="193.605" y="459.198"/>
      <point x="205.467" y="515" type="curve" smooth="yes"/>
      <point x="229.485" y="628" type="line" smooth="yes"/>
      <point x="248.619" y="718.017"/>
      <point x="210.885" y="756.087"/>
      <point x="185.094" y="772" type="curve"/>
    </contour>
  </outline>
</glyph>
<glyph name="asciitilde" format="1">
  <advance width="266"/>
  <unicode hex="007E"/>
  <outline>
    <contour>
      <point x="352.83" y="305" type="line"/>
      <point x="315.078" y="271.667"/>
      <point x="284.74" y="260.667"/>
      <point x="259.69" y="262" type="curve"/>
      <point x="212.876" y="262"/>
      <point x="177.926" y="296"/>
      <point x="132.342" y="298" type="curve" smooth="yes"/>
      <point x="111.292" y="299.333"/>
      <point x="88.4208" y="293.667"/>
      <point x="59.6028" y="271" type="curve"/>
      <point x="45.3176" y="312" type="line"/>
      <point x="81.1694" y="342.667"/>
      <point x="110.699" y="353"/>
      <point x="136.032" y="353" type="curve" smooth="yes"/>
      <point x="186.351" y="353"/>
      <point x="222.812" y="317"/>
      <point x="269.38" y="317" type="curve"/>
      <point x="294.997" y="318.333"/>
      <point x="316.86" y="328.667"/>
      <point x="336.545" y="346" type="curve"/>
    </contour>
  </outline>
</glyph>
<glyph name="currency" format="1">
  <advance width="465"/>
  <unicode hex="00A4"/>
  <outline>
    <contour>
      <point x="427.583" y="365" type="line"/>
      <point x="438.765" y="342.333"/>
      <point x="442.672" y="313.667"/>
      <point x="436.153" y="283" type="curve" smooth="yes"/>
      <point x="429.352" y="251"/>
      <point x="413.117" y="221.667"/>
      <point x="392.299" y="199" type="curve"/>
      <point x="456.869" y="117" type="line"/>
      <point x="414.217" y="81" type="line"/>
      <point x="348.859" y="164" type="line"/>
      <point x="321.175" y="146.667"/>
      <point x="291.787" y="137"/>
      <point x="261.12" y="137" type="curve" smooth="yes"/>
      <point x="229.12" y="137"/>
      <point x="201.842" y="146.667"/>
      <point x="182.859" y="164" type="curve"/>
      <point x="83.2171" y="81" type="line"/>
      <point x="55.8691" y="117" type="line"/>
      <point x="155.299" y="199" type="line"/>
      <point x="144.117" y="221.667"/>
      <point x="140.352" y="251"/>
      <point x="147.153" y="283" type="curve" smooth="yes"/>
      <point x="153.672" y="313.667"/>
      <point x="167.432" y="342.333"/>
      <point x="189.583" y="365" type="curve"/>
      <point x="126.225" y="448" type="line"/>
      <point x="168.665" y="483" type="line"/>
      <point x="232.023" y="400" type="line"/>
      <point x="260.657" y="418.667"/>
      <point x="290.974" y="428"/>
      <point x="322.974" y="428" type="curve" smooth="yes"/>
      <point x="353.641" y="428"/>
      <point x="380.324" y="418.667"/>
      <point x="399.023" y="400" type="curve"/>
      <point x="499.665" y="483" type="line"/>
      <point x="527.225" y="448" type="line"/>
    </contour>
    <contour>
      <point x="271.961" y="188" type="curve" smooth="yes"/>
      <point x="323.499" y="188"/>
      <point x="373.903" y="230.071"/>
      <point x="385.154" y="283" type="curve" smooth="yes"/>
      <point x="396.139" y="334.681"/>
      <point x="363.604" y="376"/>
      <point x="311.921" y="376" type="curve" smooth="yes"/>
      <point x="258.994" y="376"/>
      <point x="208.109" y="334.543"/>
      <point x="197.154" y="283" type="curve" smooth="yes"/>
      <point x="185.874" y="229.933"/>
      <point x="218.889" y="188"/>
    </contour>
  </outline>
</glyph>
<glyph name="degree" format="1">
  <advance width="266"/>
  <unicode hex="00B0"/>
  <outline>
    <contour>
      <point x="398.669" y="563" type="curve" smooth="yes"/>
      <point x="381.683" y="483.086"/>
      <point x="302.759" y="418"/>
      <point x="222.849" y="418" type="curve" smooth="yes"/>
      <point x="142.094" y="418"/>
      <point x="90.6391" y="482.879"/>
      <point x="107.669" y="563" type="curve" smooth="yes"/>
      <point x="124.649" y="642.883"/>
      <point x="203.919" y="708"/>
      <point x="284.49" y="708" type="curve" smooth="yes"/>
      <point x="364.584" y="708"/>
      <point x="415.693" y="643.09"/>
    </contour>
    <contour>
      <point x="273.862" y="658" type="curve" smooth="yes"/>
      <point x="222.282" y="658"/>
      <point x="169.633" y="614.582"/>
      <point x="158.669" y="563" type="curve" smooth="yes"/>
      <point x="148.02" y="512.901"/>
      <point x="181.991" y="469"/>
      <point x="233.689" y="469" type="curve" smooth="yes"/>
      <point x="284.581" y="469"/>
      <point x="337.033" y="512.958"/>
      <point x="347.669" y="563" type="curve" smooth="yes"/>
      <point x="358.645" y="614.638"/>
      <point x="324.873" y="658"/>
    </contour>
  </outline>
</glyph>
<glyph name="acute" format="1">
  <advance width="266"/>
  <unicode hex="00B4"/>
  <outline>
    <contour>
      <point x="340.964" y="682" type="curve" smooth="yes"/>
      <point x="271.172" y="603" type="line"/>
      <point x="236.172" y="603" type="line"/>
      <point x="296.915" y="710" type="line" smooth="yes"/>
      <point x="307.55" y="728.667"/>
      <point x="328.335" y="738.839"/>
      <point x="343.954" y="729" type="curve" smooth="yes"/>
      <point x="360.128" y="718.811"/>
      <point x="355.545" y="698.415"/>
    </contour>
  </outline>
</glyph>
<glyph name="paragraph" format="1">
  <advance width="620"/>
  <unicode hex="00B6"/>
  <outline>
    <contour>
      <point x="279.289" y="246" type="line" smooth="yes"/>
      <point x="148.58" y="246"/>
      <point x="95.5918" y="308.585"/>
      <point x="130.752" y="474" type="curve" smooth="yes"/>
      <point x="167.071" y="644.87"/>
      <point x="248.719" y="700"/>
      <point x="375.79" y="700" type="curve" smooth="yes"/>
      <point x="725.79" y="700" type="line"/>
      <point x="577.213" y="1" type="line"/>
      <point x="521.213" y="1" type="line"/>
      <point x="658.949" y="647" type="line"/>
      <point x="600.162" y="647" type="line"/>
      <point x="462.213" y="1" type="line"/>
      <point x="407.213" y="1" type="line"/>
      <point x="459.289" y="246" type="line"/>
    </contour>
    <contour>
      <point x="360.524" y="647" type="line" smooth="yes"/>
      <point x="282.531" y="647"/>
      <point x="216.807" y="615.398"/>
      <point x="186.752" y="474" type="curve" smooth="yes"/>
      <point x="153.185" y="320"/>
      <point x="212.382" y="302.5"/>
      <point x="286.767" y="300" type="curve"/>
      <point x="470.767" y="300" type="line"/>
      <point x="544.524" y="647" type="line"/>
    </contour>
  </outline>
</glyph>
<glyph name="cedilla" format="1">
  <advance width="266"/>
  <unicode hex="00B8"/>
  <outline>
    <contour>
      <point x="165" y="0" type="line"/>
      <point x="129.646" y="-44" type="line"/>
      <point x="137.929" y="-42.6667"/>
      <point x="147.018" y="-42.2685"/>
      <point x="156.071" y="-42" type="curve" smooth="yes"/>
      <point x="223.754" y="-40"/>
      <point x="251.684" y="-86.1542"/>
      <point x="241.299" y="-135" type="curve" smooth="yes"/>
      <point x="227.266" y="-201.009"/>
      <point x="164.665" y="-233"/>
      <point x="105.464" y="-233" type="curve" smooth="yes"/>
      <point x="59.7975" y="-233"/>
      <point x="9.18207" y="-221"/>
      <point x="7.0154" y="-221" type="curve"/>
      <point x="21.7251" y="-191.481"/>
      <point x="14.5105" y="-202.519"/>
      <point x="29.2202" y="-173" type="curve"/>
      <point x="56.4584" y="-177.013"/>
      <point x="83.3752" y="-184"/>
      <point x="109.882" y="-184" type="curve" smooth="yes"/>
      <point x="149.565" y="-184"/>
      <point x="182.965" y="-168"/>
      <point x="191.724" y="-133" type="curve" smooth="yes"/>
      <point x="200.165" y="-98"/>
      <point x="177.32" y="-91"/>
      <point x="142.653" y="-91" type="curve"/>
      <point x="121.037" y="-92.3333"/>
      <point x="94.3988" y="-95.3333"/>
      <point x="67.1652" y="-98" type="curve"/>
      <point x="60.3306" y="-69" type="line"/>
      <point x="115" y="0" type="line"/>
    </contour>
  </outline>
</glyph>
<glyph name="questiondown" format="1">
  <advance width="408"/>
  <unicode hex="00BF"/>
  <outline>
    <contour>
      <point x="412" y="161" type="line"/>
      <point x="385" y="37"/>
      <point x="283" y="-17"/>
      <point x="196" y="-15" type="curve" smooth="yes"/>
      <point x="122" y="-13"/>
      <point x="38" y="48"/>
      <point x="62" y="155" type="curve" smooth="yes"/>
      <point x="79" y="229"/>
      <point x="126" y="275"/>
      <point x="180" y="326" type="curve" smooth="yes"/>
      <point x="229" y="371"/>
      <point x="273" y="402"/>
      <point x="290" y="485" type="curve" smooth="yes"/>
      <point x="309" y="572" type="line"/>
      <point x="361" y="572" type="line"/>
      <point x="341" y="480" type="line" smooth="yes"/>
      <point x="323" y="393"/>
      <point x="272" y="344"/>
      <point x="226" y="302" type="curve" smooth="yes"/>
      <point x="179" y="260"/>
      <point x="132" y="225"/>
      <point x="117" y="157" type="curve" smooth="yes"/>
      <point x="101" y="79"/>
      <point x="151" y="39"/>
      <point x="209" y="37" type="curve" smooth="yes"/>
      <point x="270" y="35"/>
      <point x="338" y="76"/>
      <point x="356" y="161" type="curve"/>
    </contour>
    <contour>
      <point x="361.002" y="701" type="curve" smooth="yes"/>
      <point x="379.669" y="701"/>
      <point x="391.743" y="685.667"/>
      <point x="387.775" y="667" type="curve" smooth="yes"/>
      <point x="383.807" y="648.333"/>
      <point x="365.427" y="634"/>
      <point x="346.761" y="634" type="curve" smooth="yes"/>
      <point x="329.427" y="634"/>
      <point x="316.807" y="648.333"/>
      <point x="320.775" y="667" type="curve" smooth="yes"/>
      <point x="324.743" y="685.667"/>
      <point x="343.669" y="701"/>
    </contour>
  </outline>
</glyph>
<glyph name="Thorn" format="1">
  <advance width="431"/>
  <unicode hex="00DE"/>
  <outline>
    <contour>
      <point x="463" y="290" type="line" smooth="yes"/>
      <point x="441" y="193"/>
      <point x="391" y="138"/>
      <point x="317" y="116" type="curve" smooth="yes"/>
      <point x="260" y="98"/>
      <point x="182" y="104"/>
      <point x="123" y="119" type="curve"/>
      <point x="98" y="0" type="line"/>
      <point x="41" y="0" type="line"/>
      <point x="190" y="700" type="line"/>
      <point x="246" y="700" type="line"/>
      <point x="225" y="601" type="line"/>
      <point x="284" y="623"/>
      <point x="348" y="633"/>
      <point x="396" y="622" type="curve" smooth="yes"/>
      <point x="489" y="601"/>
      <point x="511" y="519"/>
      <point x="494" y="436" type="curve" smooth="yes"/>
    </contour>
    <contour>
      <point x="375" y="572" type="curve" smooth="yes"/>
      <point x="338" y="583"/>
      <point x="263" y="570"/>
      <point x="214" y="549" type="curve"/>
      <point x="134" y="170" type="line"/>
      <point x="154" y="167"/>
      <point x="249" y="145"/>
      <point x="313" y="169" type="curve" smooth="yes"/>
      <point x="369" y="189"/>
      <point x="397" y="235"/>
      <point x="411" y="302" type="curve" smooth="yes"/>
      <point x="437" y="421" type="line" smooth="yes"/>
      <point x="450" y="480"/>
      <point x="443" y="552"/>
    </contour>
  </outline>
</glyph>
<glyph name="divide" format="1">
  <advance width="378"/>
  <unicode hex="00F7"/>
  <outline>
    <contour>
      <point x="103.458" y="355" type="line"/>
      <point x="114.936" y="409" type="line"/>
      <point x="433.936" y="409" type="line"/>
      <point x="422.458" y="355" type="line"/>
    </contour>
    <contour>
      <point x="303.631" y="544" type="curve" smooth="yes"/>
      <point x="322.297" y="544"/>
      <point x="334.372" y="528.667"/>
      <point x="330.404" y="510" type="curve" smooth="yes"/>
      <point x="326.72" y="492.667"/>
      <point x="308.056" y="477"/>
      <point x="289.39" y="477" type="curve" smooth="yes"/>
      <point x="270.723" y="477"/>
      <point x="259.72" y="492.667"/>
      <point x="263.404" y="510" type="curve" smooth="yes"/>
      <point x="267.372" y="528.667"/>
      <point x="284.964" y="544"/>
    </contour>
    <contour>
      <point x="249.004" y="287" type="curve" smooth="yes"/>
      <point x="267.659" y="286.339"/>
      <point x="279.957" y="272.667"/>
      <point x="275.989" y="254" type="curve" smooth="yes"/>
      <point x="272.022" y="235.333"/>
      <point x="253.629" y="221.682"/>
      <point x="234.975" y="221" type="curve" smooth="yes"/>
      <point x="212.155" y="220.166"/>
      <point x="205.555" y="238.513"/>
      <point x="210.488" y="256.534" type="curve" smooth="yes"/>
      <point x="214.959" y="272.868"/>
      <point x="228.901" y="287.713"/>
    </contour>
  </outline>
</glyph>
<glyph name="thorn" format="1">
  <advance width="444"/>
  <unicode hex="00FE"/>
  <outline>
    <contour>
      <point x="193.288" y="453" type="line"/>
      <point x="239.89" y="490.333"/>
      <point x="286.433" y="507"/>
      <point x="343.766" y="507" type="curve" smooth="yes"/>
      <point x="453.924" y="507"/>
      <point x="507.61" y="421.582"/>
      <point x="483.893" y="310" type="curve" smooth="yes"/>
      <point x="458.416" y="190.143"/>
      <point x="367.557" y="116"/>
      <point x="256.657" y="116" type="curve" smooth="yes"/>
      <point x="208.657" y="116"/>
      <point x="153.921" y="142.333"/>
      <point x="136.323" y="185" type="curve"/>
      <point x="97" y="0" type="line"/>
      <point x="41" y="0" type="line"/>
      <point x="189.364" y="698" type="line"/>
      <point x="245.364" y="698" type="line"/>
    </contour>
    <contour>
      <point x="328.138" y="457" type="curve" smooth="yes"/>
      <point x="257.19" y="457"/>
      <point x="189" y="415"/>
      <point x="166.656" y="323" type="curve" smooth="yes"/>
      <point x="142" y="221"/>
      <point x="188.692" y="166"/>
      <point x="265.922" y="166" type="curve" smooth="yes"/>
      <point x="345.33" y="166"/>
      <point x="408.151" y="217.125"/>
      <point x="429.168" y="316" type="curve" smooth="yes"/>
      <point x="450.402" y="415.9"/>
      <point x="401.475" y="457"/>
    </contour>
  </outline>
</glyph>
<glyph name="dcroat" format="1">
  <advance width="456"/>
  <unicode hex="0111"/>
  <outline>
    <component base="d" yxScale="-9.99868e-05"/>
    <contour>
      <point x="579.457" y="562" type="line"/>
      <point x="590.722" y="615" type="line"/>
      <point x="354.722" y="615" type="line"/>
      <point x="343.457" y="562" type="line"/>
    </contour>
  </outline>
</glyph>
<glyph name="hbar" format="1">
  <advance width="471"/>
  <unicode hex="0127"/>
  <outline>
    <contour>
      <point x="380.457" y="562" type="line"/>
      <point x="145.457" y="562" type="line"/>
      <point x="156.722" y="615" type="line"/>
      <point x="391.722" y="615" type="line"/>
    </contour>
    <contour>
      <point x="225.839" y="465" type="line"/>
      <point x="270.174" y="491.667"/>
      <point x="324.645" y="508"/>
      <point x="373.979" y="508" type="curve" smooth="yes"/>
      <point x="484.298" y="508"/>
      <point x="535.639" y="449.946"/>
      <point x="513.332" y="345" type="curve" smooth="yes"/>
      <point x="440" y="0" type="line"/>
      <point x="384" y="0" type="line"/>
      <point x="456.694" y="342" type="line" smooth="yes"/>
      <point x="476.023" y="432.933"/>
      <point x="415.802" y="458"/>
      <point x="352.351" y="458" type="curve" smooth="yes"/>
      <point x="307.018" y="458"/>
      <point x="263.275" y="446.667"/>
      <point x="217.124" y="424" type="curve"/>
      <point x="127" y="0" type="line"/>
      <point x="71" y="0" type="line"/>
      <point x="219.364" y="698" type="line"/>
      <point x="275.364" y="698" type="line"/>
    </contour>
  </outline>
</glyph>
<glyph name="Eng" format="1">
  <advance width="576"/>
  <unicode hex="014A"/>
  <outline>
    <contour>
      <point x="519.821" y="-62" type="line" smooth="yes"/>
      <point x="510.186" y="-107.333"/>
      <point x="493.98" y="-139.667"/>
      <point x="465.928" y="-165" type="curve" smooth="yes"/>
      <point x="444.627" y="-183.667"/>
      <point x="418.389" y="-197.333"/>
      <point x="382.788" y="-208" type="curve"/>
      <point x="376.928" y="-165" type="line"/>
      <point x="398.629" y="-157"/>
      <point x="416.583" y="-144.667"/>
      <point x="430.368" y="-130" type="curve" smooth="yes"/>
      <point x="447.669" y="-111.333"/>
      <point x="458.153" y="-88.6667"/>
      <point x="463.821" y="-62" type="curve" smooth="yes"/>
      <point x="477.213" y="1" type="line"/>
      <point x="223.471" y="595" type="line"/>
      <point x="97" y="0" type="line"/>
      <point x="41" y="0" type="line"/>
      <point x="189.364" y="698" type="line"/>
      <point x="246.364" y="698" type="line"/>
      <point x="498.893" y="103" type="line"/>
      <point x="625.364" y="698" type="line"/>
      <point x="681.364" y="698" type="line"/>
    </contour>
  </outline>
</glyph>
<glyph name="Tbar" format="1">
  <advance width="463"/>
  <unicode hex="0166"/>
  <outline>
    <contour>
      <point x="109.346" y="378" type="line"/>
      <point x="508.346" y="378" type="line"/>
      <point x="496.443" y="322" type="line"/>
      <point x="97.4432" y="322" type="line"/>
    </contour>
    <contour>
      <point x="391.737" y="648" type="line"/>
      <point x="254" y="0" type="line"/>
      <point x="199" y="0" type="line"/>
      <point x="336.737" y="648" type="line"/>
      <point x="166.737" y="648" type="line"/>
      <point x="177.364" y="698" type="line"/>
      <point x="578.364" y="698" type="line"/>
      <point x="567.737" y="648" type="line"/>
    </contour>
  </outline>
</glyph>
<glyph name="breve" format="1">
  <advance width="266"/>
  <unicode hex="02D8"/>
  <outline>
    <contour>
      <point x="394.215" y="702" type="line"/>
      <point x="392.727" y="695" type="line" smooth="yes"/>
      <point x="379.411" y="632.353"/>
      <point x="318.658" y="582"/>
      <point x="256.708" y="582" type="curve" smooth="yes"/>
      <point x="195.227" y="582"/>
      <point x="154.387" y="632.24"/>
      <point x="167.727" y="695" type="curve" smooth="yes"/>
      <point x="169.215" y="702" type="line"/>
      <point x="214.215" y="702" type="line"/>
      <point x="212.727" y="695" type="line" smooth="yes"/>
      <point x="204.791" y="657.667"/>
      <point x="228.94" y="627"/>
      <point x="266.273" y="627" type="curve" smooth="yes"/>
      <point x="304.94" y="627"/>
      <point x="339.791" y="657.667"/>
      <point x="347.727" y="695" type="curve" smooth="yes"/>
      <point x="349.215" y="702" type="line"/>
    </contour>
  </outline>
</glyph>
<glyph name="dotaccent" format="1">
  <advance width="266"/>
  <unicode hex="02D9"/>
  <outline>
    <contour>
      <point x="291.992" y="748" type="curve" smooth="yes"/>
      <point x="310.659" y="748"/>
      <point x="321.733" y="732.667"/>
      <point x="317.765" y="714" type="curve" smooth="yes"/>
      <point x="314.081" y="696.667"/>
      <point x="296.418" y="681"/>
      <point x="277.751" y="681" type="curve" smooth="yes"/>
      <point x="259.084" y="681"/>
      <point x="248.081" y="696.667"/>
      <point x="251.765" y="714" type="curve" smooth="yes"/>
      <point x="255.733" y="732.667"/>
      <point x="273.326" y="748"/>
    </contour>
  </outline>
</glyph>
<glyph name="ring" format="1">
  <advance width="266"/>
  <unicode hex="02DA"/>
  <outline>
    <contour>
      <point x="297.306" y="773" type="curve" smooth="yes"/>
      <point x="358.728" y="773"/>
      <point x="399.821" y="723.67"/>
      <point x="386.287" y="660" type="curve" smooth="yes"/>
      <point x="372.632" y="595.757"/>
      <point x="310.353" y="546"/>
      <point x="249.056" y="546" type="curve" smooth="yes"/>
      <point x="186.94" y="546"/>
      <point x="145.607" y="595.638"/>
      <point x="159.287" y="660" type="curve" smooth="yes"/>
      <point x="172.795" y="723.551"/>
      <point x="235.315" y="773"/>
    </contour>
    <contour>
      <point x="287.954" y="729" type="curve" smooth="yes"/>
      <point x="269.092" y="729"/>
      <point x="250.441" y="721.782"/>
      <point x="235.33" y="709.9" type="curve" smooth="yes"/>
      <point x="219.462" y="697.424"/>
      <point x="207.497" y="679.805"/>
      <point x="203.287" y="660" type="curve" smooth="yes"/>
      <point x="199.642" y="642.849"/>
      <point x="202.467" y="627.141"/>
      <point x="210.115" y="614.971" type="curve" smooth="yes"/>
      <point x="219.709" y="599.702"/>
      <point x="236.892" y="590"/>
      <point x="258.408" y="590" type="curve" smooth="yes"/>
      <point x="279.263" y="590"/>
      <point x="299.631" y="599.115"/>
      <point x="315.26" y="613.578" type="curve" smooth="yes"/>
      <point x="328.609" y="625.932"/>
      <point x="338.501" y="642.188"/>
      <point x="342.287" y="660" type="curve" smooth="yes"/>
      <point x="345.976" y="677.354"/>
      <point x="343.198" y="693.029"/>
      <point x="335.519" y="705.037" type="curve" smooth="yes"/>
      <point x="326.088" y="719.784"/>
      <point x="309.266" y="729"/>
    </contour>
  </outline>
</glyph>
<glyph name="ogonek" format="1">
  <advance width="266"/>
  <unicode hex="02DB"/>
  <outline>
    <contour>
      <point x="163.338" y="11" type="line"/>
      <point x="161.425" y="2" type="line"/>
      <point x="64.0681" y="-122" type="line" smooth="yes"/>
      <point x="28.1718" y="-168.153"/>
      <point x="47.7359" y="-200.234"/>
      <point x="99.8896" y="-184" type="curve"/>
      <point x="159.6" y="-163.438"/>
      <point x="203.609" y="-150.327"/>
      <point x="204.117" y="-150" type="curve"/>
      <point x="213.827" y="-189" type="line"/>
      <point x="214.635" y="-188.889"/>
      <point x="119.857" y="-220.778"/>
      <point x="101.962" y="-226" type="curve" smooth="yes"/>
      <point x="7.82693" y="-250.267"/>
      <point x="-25.6161" y="-180.463"/>
      <point x="30.0439" y="-108" type="curve"/>
      <point x="117.638" y="3" type="line"/>
      <point x="118.701" y="8" type="line"/>
    </contour>
  </outline>
</glyph>
<glyph name="tonos" format="1">
  <advance width="266"/>
  <unicode hex="0384"/>
  <outline>
    <contour>
      <point x="346.964" y="682" type="curve"/>
      <point x="277.172" y="603" type="line"/>
      <point x="242.172" y="603" type="line"/>
      <point x="302.915" y="710" type="line" smooth="yes"/>
      <point x="313.55" y="728.667"/>
      <point x="334.888" y="739.667"/>
      <point x="349.954" y="729" type="curve"/>
      <point x="366.637" y="719.667"/>
      <point x="363.414" y="696.667"/>
    </contour>
  </outline>
</glyph>
<glyph name="dieresistonos" format="1">
  <advance width="266"/>
  <unicode hex="0385"/>
  <outline>
    <contour>
      <point x="233.664" y="690" type="curve" smooth="yes"/>
      <point x="229.696" y="671.333"/>
      <point x="212.316" y="657"/>
      <point x="193.65" y="657" type="curve" smooth="yes"/>
      <point x="174.983" y="657"/>
      <point x="162.696" y="671.333"/>
      <point x="166.664" y="690" type="curve" smooth="yes"/>
      <point x="170.632" y="708.667"/>
      <point x="189.012" y="723"/>
      <point x="207.678" y="723" type="curve" smooth="yes"/>
      <point x="226.345" y="723"/>
      <point x="237.632" y="708.667"/>
    </contour>
    <contour>
      <point x="391.664" y="690" type="curve" smooth="yes"/>
      <point x="387.696" y="671.333"/>
      <point x="369.316" y="657"/>
      <point x="350.65" y="657" type="curve" smooth="yes"/>
      <point x="333.316" y="657"/>
      <point x="320.696" y="671.333"/>
      <point x="324.664" y="690" type="curve" smooth="yes"/>
      <point x="328.632" y="708.667"/>
      <point x="347.345" y="723"/>
      <point x="364.678" y="723" type="curve" smooth="yes"/>
      <point x="383.345" y="723"/>
      <point x="395.632" y="708.667"/>
    </contour>
    <contour>
      <point x="367.808" y="813" type="curve"/>
      <point x="298.017" y="734" type="line"/>
      <point x="262.017" y="734" type="line"/>
      <point x="322.547" y="840" type="line" smooth="yes"/>
      <point x="333.182" y="858.667"/>
      <point x="355.733" y="870.667"/>
      <point x="370.799" y="860" type="curve"/>
      <point x="387.481" y="850.667"/>
      <point x="382.926" y="827.667"/>
    </contour>
  </outline>
</glyph>
<glyph name="Eta" format="1">
  <advance width="513"/>
  <unicode hex="0397"/>
  <outline>
    <contour>
      <point x="501.361" y="411" type="line"/>
      <point x="562.364" y="698" type="line"/>
      <point x="618.364" y="698" type="line"/>
      <point x="470" y="0" type="line"/>
      <point x="414" y="0" type="line"/>
      <point x="489.67" y="356" type="line"/>
      <point x="172.67" y="356" type="line"/>
      <point x="97" y="0" type="line"/>
      <point x="41" y="0" type="line"/>
      <point x="189.364" y="698" type="line"/>
      <point x="245.364" y="698" type="line"/>
      <point x="184.361" y="411" type="line"/>
    </contour>
  </outline>
</glyph>
<glyph name="Upsilon" format="1">
  <advance width="513"/>
  <unicode hex="03A5"/>
  <outline>
    <contour>
      <point x="504.946" y="155" type="line" smooth="yes"/>
      <point x="484.257" y="57.6667"/>
      <point x="435.163" y="2.33333"/>
      <point x="366.512" y="-7" type="curve"/>
      <point x="361.377" y="30" type="line"/>
      <point x="406.779" y="46"/>
      <point x="434.229" y="85.7622"/>
      <point x="448.309" y="152" type="curve" smooth="yes"/>
      <point x="480.83" y="305" type="line"/>
      <point x="459.192" y="285.551"/>
      <point x="402.41" y="250.018"/>
      <point x="310.864" y="244" type="curve"/>
      <point x="239.63" y="241.333"/>
      <point x="187.336" y="260.333"/>
      <point x="154.704" y="295" type="curve" smooth="yes"/>
      <point x="120.739" y="329.667"/>
      <point x="110.913" y="380.667"/>
      <point x="128.201" y="462" type="curve" smooth="yes"/>
      <point x="178.364" y="698" type="line"/>
      <point x="234.364" y="698" type="line"/>
      <point x="181.863" y="451" type="line" smooth="yes"/>
      <point x="169.96" y="395"/>
      <point x="176.662" y="360.667"/>
      <point x="202.994" y="334" type="curve"/>
      <point x="231.226" y="310"/>
      <point x="268.554" y="299"/>
      <point x="312.554" y="299" type="curve" smooth="yes"/>
      <point x="353.221" y="299"/>
      <point x="388.971" y="305.667"/>
      <point x="419.806" y="319" type="curve" smooth="yes"/>
      <point x="462.723" y="339"/>
      <point x="496.913" y="380.667"/>
      <point x="505.699" y="422" type="curve" smooth="yes"/>
      <point x="564.364" y="698" type="line"/>
      <point x="620.364" y="698" type="line"/>
    </contour>
  </outline>
</glyph>
<glyph name="Chi" format="1">
  <advance width="554"/>
  <unicode hex="03A7"/>
  <outline>
    <contour>
      <point x="367" y="411" type="line"/>
      <point x="600.364" y="698" type="line"/>
      <point x="674" y="698" type="line"/>
      <point x="392" y="352" type="line"/>
      <point x="530" y="0" type="line"/>
      <point x="467" y="0" type="line"/>
      <point x="348" y="299" type="line"/>
      <point x="100" y="0" type="line"/>
      <point x="25" y="0" type="line"/>
      <point x="324" y="359" type="line"/>
      <point x="191.364" y="698" type="line"/>
      <point x="254.364" y="698" type="line"/>
    </contour>
  </outline>
</glyph>
<glyph name="Psi" format="1">
  <advance width="591"/>
  <unicode hex="03A8"/>
  <outline>
    <contour>
      <point x="172" y="396" type="line" smooth="yes"/>
      <point x="153" y="308"/>
      <point x="196" y="264"/>
      <point x="276" y="264" type="curve" smooth="yes"/>
      <point x="320" y="264" type="line"/>
      <point x="413" y="700" type="line"/>
      <point x="470" y="700" type="line"/>
      <point x="377" y="264" type="line"/>
      <point x="427" y="264" type="line" smooth="yes"/>
      <point x="506" y="264"/>
      <point x="567" y="308"/>
      <point x="586" y="396" type="curve" smooth="yes"/>
      <point x="621" y="564" type="line"/>
      <point x="644" y="661"/>
      <point x="603" y="692"/>
      <point x="605" y="693" type="curve"/>
      <point x="653" y="709" type="line"/>
      <point x="684" y="685"/>
      <point x="694" y="639"/>
      <point x="675" y="550" type="curve" smooth="yes"/>
      <point x="644" y="406" type="line" smooth="yes"/>
      <point x="618" y="285"/>
      <point x="543" y="213"/>
      <point x="416" y="213" type="curve" smooth="yes"/>
      <point x="366" y="213" type="line"/>
      <point x="321" y="0" type="line"/>
      <point x="264" y="0" type="line"/>
      <point x="309" y="213" type="line"/>
      <point x="265" y="213" type="line" smooth="yes"/>
      <point x="139" y="213"/>
      <point x="92" y="285"/>
      <point x="118" y="406" type="curve" smooth="yes"/>
      <point x="180" y="700" type="line"/>
      <point x="236" y="700" type="line"/>
    </contour>
  </outline>
</glyph>
<glyph name="Omegagreek" format="1">
  <advance width="580"/>
  <unicode hex="03A9"/>
  <outline>
    <contour>
      <point x="574.225" y="194" type="line" smooth="yes"/>
      <point x="560.342" y="128.667"/>
      <point x="527.525" y="79.3333"/>
      <point x="470.625" y="50" type="curve"/>
      <point x="540.625" y="50" type="line"/>
      <point x="545.787" y="-1" type="line"/>
      <point x="317.787" y="-1" type="line"/>
      <point x="328.625" y="50" type="line"/>
      <point x="416.353" y="50"/>
      <point x="499.455" y="100.964"/>
      <point x="519.225" y="194" type="curve" smooth="yes"/>
      <point x="586.375" y="510" type="line" smooth="yes"/>
      <point x="605.075" y="598"/>
      <point x="563.217" y="652"/>
      <point x="484.55" y="652" type="curve" smooth="yes"/>
      <point x="372.55" y="652" type="line" smooth="yes"/>
      <point x="293.883" y="652"/>
      <point x="230.075" y="598"/>
      <point x="211.375" y="510" type="curve" smooth="yes"/>
      <point x="144.225" y="194" type="line" smooth="yes"/>
      <point x="124.102" y="99.3036"/>
      <point x="179.198" y="50"/>
      <point x="271.625" y="50" type="curve"/>
      <point x="260.787" y="-1" type="line"/>
      <point x="32.7875" y="-1" type="line"/>
      <point x="61.625" y="50" type="line"/>
      <point x="125.625" y="50" type="line"/>
      <point x="86.9515" y="78.4588"/>
      <point x="74.0795" y="127.433"/>
      <point x="88.225" y="194" type="curve" smooth="yes"/>
      <point x="153.463" y="501" type="line" smooth="yes"/>
      <point x="179.529" y="623.667"/>
      <point x="258.267" y="705"/>
      <point x="383.6" y="705" type="curve" smooth="yes"/>
      <point x="486.208" y="705" type="line" smooth="yes"/>
      <point x="610.208" y="705"/>
      <point x="665.529" y="623.667"/>
      <point x="639.463" y="501" type="curve" smooth="yes"/>
    </contour>
  </outline>
</glyph>
<glyph name="epsilon" format="1">
  <advance width="395"/>
  <unicode hex="03B5"/>
  <outline>
    <contour>
      <point x="395" y="445" type="line"/>
      <point x="344" y="462"/>
      <point x="306" y="462"/>
      <point x="273" y="455" type="curve" smooth="yes"/>
      <point x="221" y="444"/>
      <point x="193.353" y="415.667"/>
      <point x="185.984" y="381" type="curve" smooth="yes"/>
      <point x="177.482" y="341"/>
      <point x="200.434" y="300"/>
      <point x="245.767" y="300" type="curve" smooth="yes"/>
      <point x="364.767" y="300" type="line"/>
      <point x="333.289" y="246" type="line"/>
      <point x="235.289" y="246" type="line" smooth="yes"/>
      <point x="196.786" y="246"/>
      <point x="122.911" y="220.697"/>
      <point x="106.821" y="145" type="curve" smooth="yes"/>
      <point x="94.3507" y="86.3333"/>
      <point x="138" y="42"/>
      <point x="220.927" y="42" type="curve" smooth="yes"/>
      <point x="267" y="42"/>
      <point x="318.284" y="55.785"/>
      <point x="370.729" y="74" type="curve"/>
      <point x="375.889" y="23" type="line"/>
      <point x="324.688" y="1.6667"/>
      <point x="258.329" y="-11"/>
      <point x="199.662" y="-11" type="curve" smooth="yes"/>
      <point x="102" y="-11"/>
      <point x="31" y="44"/>
      <point x="50" y="144" type="curve" smooth="yes"/>
      <point x="61" y="201"/>
      <point x="100" y="259"/>
      <point x="163" y="280" type="curve"/>
      <point x="134" y="299"/>
      <point x="119" y="336"/>
      <point x="127.346" y="378" type="curve" smooth="yes"/>
      <point x="140" y="442"/>
      <point x="202.135" y="509"/>
      <point x="309.191" y="509" type="curve" smooth="yes"/>
      <point x="338.525" y="509"/>
      <point x="371.149" y="505.667"/>
      <point x="406.215" y="495" type="curve"/>
    </contour>
  </outline>
</glyph>
<glyph name="zeta" format="1">
  <advance width="412"/>
  <unicode hex="03B6"/>
  <outline>
    <contour>
      <point x="525.587" y="652" type="line"/>
      <point x="526.766" y="651.667"/>
      <point x="437.717" y="601.305"/>
      <point x="336.853" y="498" type="curve" smooth="yes"/>
      <point x="293.373" y="453.467"/>
      <point x="253.056" y="408"/>
      <point x="218.371" y="364" type="curve"/>
      <point x="169.817" y="298.667"/>
      <point x="134.617" y="235"/>
      <point x="120.898" y="183" type="curve" smooth="yes"/>
      <point x="110.779" y="141.667"/>
      <point x="114.406" y="108.369"/>
      <point x="138.43" y="82" type="curve" smooth="yes"/>
      <point x="171.813" y="44.1266"/>
      <point x="238.754" y="36.5484"/>
      <point x="392.091" y="54" type="curve"/>
      <point x="332.576" y="-212" type="line"/>
      <point x="282.96" y="-185.744" type="line"/>
      <point x="324.64" y="-5.1315" type="line"/>
      <point x="186.97" y="-17.7618"/>
      <point x="122.708" y="3.33334"/>
      <point x="84.6277" y="50" type="curve" smooth="yes"/>
      <point x="59.1461" y="80.6667"/>
      <point x="51.8738" y="128"/>
      <point x="65.1103" y="184" type="curve" smooth="yes"/>
      <point x="78.9136" y="242.667"/>
      <point x="114.126" y="312.667"/>
      <point x="176.747" y="394" type="curve" smooth="yes"/>
      <point x="208.2" y="435.333"/>
      <point x="247.056" y="477"/>
      <point x="293.742" y="521" type="curve" smooth="yes"/>
      <point x="336.575" y="562.907"/>
      <point x="386.551" y="609.08"/>
      <point x="441.374" y="651" type="curve"/>
      <point x="232.374" y="651" type="line"/>
      <point x="242.364" y="698" type="line"/>
      <point x="513.364" y="698" type="line"/>
    </contour>
  </outline>
</glyph>
<glyph name="nu" format="1">
  <advance width="427"/>
  <unicode hex="03BD"/>
  <outline>
    <contour>
      <point x="125.066" y="499" type="line"/>
      <point x="183.066" y="499" type="line"/>
      <point x="220" y="58" type="line"/>
      <point x="448" y="499" type="line"/>
      <point x="509.066" y="499" type="line"/>
      <point x="248" y="0" type="line"/>
      <point x="171" y="0" type="line"/>
    </contour>
  </outline>
</glyph>
<glyph name="xi" format="1">
  <advance width="430"/>
  <unicode hex="03BE"/>
  <outline>
    <contour>
      <point x="496.949" y="649" type="line"/>
      <point x="375.949" y="649" type="line" smooth="yes"/>
      <point x="318.616" y="649"/>
      <point x="275.293" y="617.252"/>
      <point x="264.418" y="553" type="curve" smooth="yes"/>
      <point x="250.137" y="468.624"/>
      <point x="293.091" y="414.635"/>
      <point x="355.15" y="404" type="curve" smooth="yes"/>
      <point x="396" y="397" type="line"/>
      <point x="371.544" y="353" type="line"/>
      <point x="248.077" y="353" type="line" smooth="yes"/>
      <point x="212.358" y="353"/>
      <point x="156.506" y="341.117"/>
      <point x="137.352" y="251" type="curve" smooth="yes"/>
      <point x="121.197" y="175" type="line" smooth="yes"/>
      <point x="101.004" y="80"/>
      <point x="113.407" y="31.7802"/>
      <point x="248.077" y="38" type="curve" smooth="yes"/>
      <point x="284.491" y="39.6818"/>
      <point x="365.137" y="48.4832"/>
      <point x="390.84" y="51" type="curve"/>
      <point x="335.15" y="-211" type="line"/>
      <point x="284.472" y="-188.27" type="line"/>
      <point x="326" y="-4" type="line"/>
      <point x="293.992" y="-5.9743"/>
      <point x="266.518" y="-9.0142"/>
      <point x="240.874" y="-10" type="curve" smooth="yes"/>
      <point x="112.138" y="-14.9492"/>
      <point x="32.4494" y="20.9335"/>
      <point x="63.7094" y="168" type="curve" smooth="yes"/>
      <point x="81.9892" y="254" type="line" smooth="yes"/>
      <point x="103.533" y="355.357"/>
      <point x="173.449" y="404"/>
      <point x="246.493" y="404" type="curve" smooth="yes"/>
      <point x="257.852" y="404" type="line"/>
      <point x="207.331" y="440.717"/>
      <point x="200.354" y="513.716"/>
      <point x="208.056" y="556" type="curve" smooth="yes"/>
      <point x="224.313" y="645.253"/>
      <point x="291.43" y="700"/>
      <point x="383.789" y="700" type="curve" smooth="yes"/>
      <point x="529.789" y="700" type="line"/>
    </contour>
  </outline>
</glyph>
<glyph name="sigma1" format="1">
  <advance width="340"/>
  <unicode hex="03C2"/>
  <outline>
    <contour>
      <point x="140.366" y="284" type="line" smooth="yes"/>
      <point x="132.117" y="243.977"/>
      <point x="134.39" y="218.365"/>
      <point x="167.685" y="182" type="curve" smooth="yes"/>
      <point x="228.656" y="116" type="line" smooth="yes"/>
      <point x="257.797" y="84.843"/>
      <point x="292.963" y="46.8787"/>
      <point x="278.96" y="-19" type="curve" smooth="yes"/>
      <point x="267.433" y="-73.23"/>
      <point x="224.919" y="-110.368"/>
      <point x="164.816" y="-142" type="curve"/>
      <point x="147.043" y="-108" type="line"/>
      <point x="186.744" y="-86.5273"/>
      <point x="223.385" y="-54.6398"/>
      <point x="230.323" y="-22" type="curve" smooth="yes"/>
      <point x="237.975" y="14"/>
      <point x="228.675" y="31.6886"/>
      <point x="197.603" y="64" type="curve" smooth="yes"/>
      <point x="123.395" y="143" type="line" smooth="yes"/>
      <point x="80.1462" y="188.139"/>
      <point x="71.0278" y="223.994"/>
      <point x="83.1525" y="283" type="curve" smooth="yes"/>
      <point x="97.0922" y="352.305" type="line" smooth="yes"/>
      <point x="121.369" y="473.006"/>
      <point x="211.913" y="503"/>
      <point x="282.547" y="503" type="curve"/>
      <point x="362.098" y="504.417"/>
      <point x="412.637" y="467.583"/>
      <point x="412.688" y="469" type="curve"/>
      <point x="384.431" y="428.508" type="line"/>
      <point x="362.538" y="439"/>
      <point x="329.585" y="454"/>
      <point x="290.5" y="454" type="curve"/>
      <point x="229.296" y="458.004"/>
      <point x="166.762" y="425.173"/>
      <point x="152.665" y="349.779" type="curve" smooth="yes"/>
    </contour>
  </outline>
</glyph>
<glyph name="sigma" format="1">
  <advance width="468"/>
  <unicode hex="03C3"/>
  <outline>
    <contour>
      <point x="552.467" y="515" type="line"/>
      <point x="520.505" y="478.647"/>
      <point x="487.659" y="459.024"/>
      <point x="455.863" y="451" type="curve"/>
      <point x="469.995" y="429.667"/>
      <point x="480.393" y="392.333"/>
      <point x="464.806" y="319" type="curve" smooth="yes"/>
      <point x="436.11" y="184" type="line" smooth="yes"/>
      <point x="411.676" y="69.0433"/>
      <point x="335.586" y="-10"/>
      <point x="213.874" y="-10" type="curve" smooth="yes"/>
      <point x="89.3404" y="-10"/>
      <point x="44.2093" y="76.2586"/>
      <point x="67.1104" y="184" type="curve" smooth="yes"/>
      <point x="95.8055" y="319" type="line" smooth="yes"/>
      <point x="127.713" y="469.113"/>
      <point x="234.324" y="510"/>
      <point x="322.404" y="510" type="curve" smooth="yes"/>
      <point x="370.404" y="510"/>
      <point x="412.853" y="498"/>
      <point x="441.703" y="502" type="curve" smooth="yes"/>
      <point x="463.604" y="504.667"/>
      <point x="499.125" y="519.667"/>
      <point x="524.993" y="541" type="curve"/>
    </contour>
    <contour>
      <point x="410.781" y="333" type="line" smooth="yes"/>
      <point x="423.992" y="395.152"/>
      <point x="413.783" y="430.783"/>
      <point x="401.013" y="447" type="curve"/>
      <point x="373.58" y="449.667"/>
      <point x="341.805" y="457"/>
      <point x="311.138" y="457" type="curve" smooth="yes"/>
      <point x="252.974" y="457"/>
      <point x="177.985" y="428.051"/>
      <point x="156.293" y="326" type="curve" smooth="yes"/>
      <point x="123.985" y="174" type="line" smooth="yes"/>
      <point x="107.099" y="94.5584"/>
      <point x="146.011" y="40"/>
      <point x="225.502" y="40" type="curve" smooth="yes"/>
      <point x="308.832" y="40"/>
      <point x="359.615" y="92.2833"/>
      <point x="376.985" y="174" type="curve" smooth="yes"/>
    </contour>
  </outline>
</glyph>
<glyph name="tau" format="1">
  <advance width="350"/>
  <unicode hex="03C4"/>
  <outline>
    <contour>
      <point x="224.057" y="132" type="line" smooth="yes"/>
      <point x="212.75" y="78.8042"/>
      <point x="228.229" y="45.8221"/>
      <point x="268.377" y="30" type="curve"/>
      <point x="243.237" y="-13" type="line"/>
      <point x="173.105" y="8.33333"/>
      <point x="151.336" y="53.3333"/>
      <point x="168.057" y="132" type="curve" smooth="yes"/>
      <point x="234.8" y="446" type="line"/>
      <point x="114.8" y="446" type="line"/>
      <point x="125.853" y="498" type="line"/>
      <point x="428.853" y="498" type="line"/>
      <point x="417.8" y="446" type="line"/>
      <point x="290.8" y="446" type="line"/>
    </contour>
  </outline>
</glyph>
<glyph name="chi" format="1">
  <advance width="487"/>
  <unicode hex="03C7"/>
  <outline>
    <contour>
      <point x="355.595" y="-96" type="line"/>
      <point x="367.775" y="-145.333"/>
      <point x="395.878" y="-163.667"/>
      <point x="447.228" y="-173" type="curve"/>
      <point x="411.151" y="-211" type="line"/>
      <point x="357.817" y="-211"/>
      <point x="320.144" y="-179.667"/>
      <point x="300.131" y="-117" type="curve"/>
      <point x="243.343" y="91" type="line"/>
      <point x="29.6385" y="-204" type="line"/>
      <point x="-17.2602" y="-180" type="line"/>
      <point x="225.734" y="154" type="line"/>
      <point x="130.853" y="498" type="line"/>
      <point x="192.853" y="498" type="line"/>
      <point x="270.912" y="216" type="line"/>
      <point x="474.853" y="498" type="line"/>
      <point x="537.853" y="498" type="line"/>
      <point x="287.309" y="152" type="line"/>
    </contour>
  </outline>
</glyph>
<glyph name="psi" format="1">
  <advance width="592"/>
  <unicode hex="03C8"/>
  <outline>
    <contour>
      <point x="633.128" y="504" type="line"/>
      <point x="654.043" y="470.667"/>
      <point x="650.816" y="436.667"/>
      <point x="640.047" y="386" type="curve" smooth="yes"/>
      <point x="597.961" y="188" type="line" smooth="yes"/>
      <point x="572.454" y="68"/>
      <point x="495.179" y="-7"/>
      <point x="368.512" y="-7" type="curve" smooth="yes"/>
      <point x="324.512" y="-7" type="line"/>
      <point x="280.088" y="-216" type="line"/>
      <point x="227.874" y="-185.744" type="line"/>
      <point x="267.512" y="-7" type="line"/>
      <point x="217.512" y="-7" type="line" smooth="yes"/>
      <point x="92.1788" y="-7"/>
      <point x="47.4538" y="68"/>
      <point x="72.9606" y="188" type="curve" smooth="yes"/>
      <point x="138.853" y="498" type="line"/>
      <point x="191.853" y="498" type="line"/>
      <point x="123.835" y="178" type="line" smooth="yes"/>
      <point x="105.13" y="90"/>
      <point x="149.473" y="43"/>
      <point x="228.14" y="43" type="curve" smooth="yes"/>
      <point x="278.14" y="43" type="line"/>
      <point x="374.853" y="498" type="line"/>
      <point x="431.853" y="498" type="line"/>
      <point x="335.14" y="43" type="line"/>
      <point x="379.14" y="43" type="line" smooth="yes"/>
      <point x="458.587" y="43"/>
      <point x="521.187" y="90.2688"/>
      <point x="539.835" y="178" type="curve" smooth="yes"/>
      <point x="584.047" y="386" type="line" smooth="yes"/>
      <point x="593.116" y="428.667"/>
      <point x="595.797" y="461.667"/>
      <point x="570.515" y="487" type="curve"/>
    </contour>
  </outline>
</glyph>
<glyph name="omega" format="1">
  <advance width="594"/>
  <unicode hex="03C9"/>
  <outline>
    <contour>
      <point x="560.641" y="497" type="line"/>
      <point x="625.781" y="471"/>
      <point x="648.219" y="410.333"/>
      <point x="627.955" y="315" type="curve" smooth="yes"/>
      <point x="600.536" y="186" type="line" smooth="yes"/>
      <point x="572.478" y="54"/>
      <point x="505.903" y="-13"/>
      <point x="399.237" y="-13" type="curve" smooth="yes"/>
      <point x="352.019" y="-13"/>
      <point x="319.616" y="4.58706"/>
      <point x="305.502" y="40" type="curve"/>
      <point x="274.215" y="4.41527"/>
      <point x="234.19" y="-13"/>
      <point x="189.237" y="-13" type="curve" smooth="yes"/>
      <point x="82.5701" y="-13"/>
      <point x="41.4781" y="54"/>
      <point x="69.5355" y="186" type="curve" smooth="yes"/>
      <point x="96.9553" y="315" type="line" smooth="yes"/>
      <point x="117.077" y="409.667"/>
      <point x="167.256" y="471.667"/>
      <point x="244.641" y="497" type="curve"/>
      <point x="266.288" y="453" type="line"/>
      <point x="208.221" y="437"/>
      <point x="169.889" y="394.667"/>
      <point x="154.868" y="324" type="curve" smooth="yes"/>
      <point x="123.41" y="176" type="line" smooth="yes"/>
      <point x="103.855" y="84"/>
      <point x="140.502" y="40"/>
      <point x="196.502" y="40" type="curve" smooth="yes"/>
      <point x="253.836" y="40"/>
      <point x="281.438" y="77.3333"/>
      <point x="302.159" y="156" type="curve"/>
      <point x="331.917" y="296" type="line"/>
      <point x="388.917" y="296" type="line"/>
      <point x="359.159" y="156" type="line" smooth="yes"/>
      <point x="342.438" y="77.3333"/>
      <point x="356.502" y="40"/>
      <point x="412.502" y="40" type="curve" smooth="yes"/>
      <point x="469.836" y="40"/>
      <point x="522.855" y="84"/>
      <point x="542.41" y="176" type="curve" smooth="yes"/>
      <point x="573.868" y="324" type="line" smooth="yes"/>
      <point x="588.889" y="394.667"/>
      <point x="570.554" y="437"/>
      <point x="519.288" y="453" type="curve"/>
    </contour>
  </outline>
</glyph>
<glyph name="quoteright" format="1">
  <advance width="128"/>
  <unicode hex="2019"/>
  <outline>
    <contour>
      <point x="147.394" y="557" type="line"/>
      <point x="174.396" y="583.667"/>
      <point x="188.255" y="609.667"/>
      <point x="194.123" y="631" type="curve"/>
      <point x="180.307" y="635"/>
      <point x="170.737" y="648"/>
      <point x="174.138" y="664" type="curve" smooth="yes"/>
      <point x="178.105" y="682.667"/>
      <point x="197.031" y="698"/>
      <point x="214.365" y="698" type="curve" smooth="yes"/>
      <point x="233.031" y="698"/>
      <point x="245.389" y="684"/>
      <point x="241.138" y="664" type="curve" smooth="yes"/>
      <point x="228.182" y="603.05"/>
      <point x="187.107" y="562.058"/>
      <point x="162.631" y="544" type="curve"/>
    </contour>
  </outline>
</glyph>
<glyph name="quotesinglbase" format="1">
  <advance width="139"/>
  <unicode hex="201A"/>
  <outline>
    <contour>
      <point x="20.1838" y="-65" type="line"/>
      <point x="45.852" y="-38.3333"/>
      <point x="60.2577" y="-11.3333"/>
      <point x="66.1256" y="10" type="curve"/>
      <point x="52.0257" y="12.6667"/>
      <point x="42.4556" y="25.6667"/>
      <point x="46.1399" y="43" type="curve" smooth="yes"/>
      <point x="50.1076" y="61.6667"/>
      <point x="68.8209" y="76"/>
      <point x="86.1543" y="76" type="curve" smooth="yes"/>
      <point x="104.821" y="76"/>
      <point x="116.058" y="63"/>
      <point x="113.14" y="43" type="curve"/>
      <point x="99.7839" y="-19.8355"/>
      <point x="57.914" y="-59.8238"/>
      <point x="34.6332" y="-77" type="curve"/>
    </contour>
  </outline>
</glyph>
<glyph name="quotedblright" format="1">
  <advance width="307"/>
  <unicode hex="201D"/>
  <outline>
    <contour>
      <point x="147.394" y="557" type="line"/>
      <point x="174.396" y="583.667"/>
      <point x="188.255" y="609.667"/>
      <point x="194.123" y="631" type="curve"/>
      <point x="180.307" y="635"/>
      <point x="170.737" y="648"/>
      <point x="174.138" y="664" type="curve" smooth="yes"/>
      <point x="178.105" y="682.667"/>
      <point x="195.698" y="698"/>
      <point x="214.365" y="698" type="curve" smooth="yes"/>
      <point x="233.031" y="698"/>
      <point x="244.055" y="684"/>
      <point x="241.138" y="664" type="curve"/>
      <point x="228.301" y="603.61"/>
      <point x="186.08" y="561.3"/>
      <point x="162.631" y="544" type="curve"/>
    </contour>
    <contour>
      <point x="327.394" y="557" type="line"/>
      <point x="354.396" y="583.667"/>
      <point x="366.922" y="609.667"/>
      <point x="374.123" y="631" type="curve"/>
      <point x="358.973" y="635"/>
      <point x="349.737" y="648"/>
      <point x="353.138" y="664" type="curve" smooth="yes"/>
      <point x="357.105" y="682.667"/>
      <point x="376.031" y="698"/>
      <point x="393.365" y="698" type="curve" smooth="yes"/>
      <point x="412.031" y="698"/>
      <point x="424.389" y="684"/>
      <point x="420.138" y="664" type="curve" smooth="yes"/>
      <point x="407.182" y="603.05"/>
      <point x="366.107" y="562.058"/>
      <point x="341.631" y="544" type="curve"/>
    </contour>
  </outline>
</glyph>
<glyph name="bullet" format="1">
  <advance width="342"/>
  <unicode hex="2022"/>
  <outline>
    <contour>
      <point x="360.462" y="435" type="curve" smooth="yes"/>
      <point x="382.511" y="407"/>
      <point x="389.425" y="373.667"/>
      <point x="381.206" y="335" type="curve" smooth="yes"/>
      <point x="373.271" y="297.667"/>
      <point x="352.044" y="263.667"/>
      <point x="318.376" y="237" type="curve"/>
      <point x="285.758" y="209"/>
      <point x="249.782" y="195"/>
      <point x="210.449" y="195" type="curve" smooth="yes"/>
      <point x="172.449" y="195"/>
      <point x="142.424" y="209"/>
      <point x="120.376" y="237" type="curve" smooth="yes"/>
      <point x="98.7107" y="263.667"/>
      <point x="91.9876" y="296.333"/>
      <point x="100.206" y="335" type="curve" smooth="yes"/>
      <point x="108.567" y="374.333"/>
      <point x="129.319" y="407.667"/>
      <point x="162.462" y="435" type="curve" smooth="yes"/>
      <point x="196.939" y="462.333"/>
      <point x="232.844" y="476"/>
      <point x="270.177" y="476" type="curve" smooth="yes"/>
      <point x="308.844" y="476"/>
      <point x="338.939" y="462.333"/>
    </contour>
  </outline>
</glyph>
<glyph name="perthousand" format="1">
  <advance width="1055"/>
  <unicode hex="2030"/>
  <outline>
    <contour>
      <point x="49" y="0" type="line"/>
      <point x="734.365" y="698" type="line"/>
      <point x="798.365" y="698" type="line"/>
      <point x="117" y="0" type="line"/>
    </contour>
    <contour>
      <point x="326.34" y="712" type="curve" smooth="yes"/>
      <point x="405.067" y="712"/>
      <point x="457.652" y="647.604"/>
      <point x="440.307" y="566" type="curve" smooth="yes"/>
      <point x="423.309" y="486.03"/>
      <point x="343.056" y="421"/>
      <point x="264.486" y="421" type="curve" smooth="yes"/>
      <point x="183.731" y="421"/>
      <point x="132.277" y="485.879"/>
      <point x="149.307" y="566" type="curve" smooth="yes"/>
      <point x="166.62" y="647.453"/>
      <point x="245.743" y="712"/>
    </contour>
    <contour>
      <point x="315.5" y="661" type="curve" smooth="yes"/>
      <point x="262.58" y="661"/>
      <point x="211.259" y="617.525"/>
      <point x="200.307" y="566" type="curve" smooth="yes"/>
      <point x="189.646" y="515.845"/>
      <point x="222.288" y="472"/>
      <point x="275.327" y="472" type="curve" smooth="yes"/>
      <point x="326.898" y="472"/>
      <point x="377.676" y="515.983"/>
      <point x="388.307" y="566" type="curve" smooth="yes"/>
      <point x="399.288" y="617.664"/>
      <point x="367.189" y="661"/>
    </contour>
    <contour>
      <point x="592.666" y="276" type="curve" smooth="yes"/>
      <point x="673.669" y="276"/>
      <point x="723.856" y="211.033"/>
      <point x="706.845" y="131" type="curve" smooth="yes"/>
      <point x="689.847" y="51.0296"/>
      <point x="611.844" y="-14"/>
      <point x="531.024" y="-14" type="curve" smooth="yes"/>
      <point x="450.931" y="-14"/>
      <point x="399.821" y="50.9104"/>
      <point x="416.845" y="131" type="curve" smooth="yes"/>
      <point x="433.831" y="210.914"/>
      <point x="512.756" y="276"/>
    </contour>
    <contour>
      <point x="582.038" y="226" type="curve" smooth="yes"/>
      <point x="532.029" y="226"/>
      <point x="479.282" y="184.807"/>
      <point x="467.845" y="131" type="curve" smooth="yes"/>
      <point x="456.712" y="78.626"/>
      <point x="491.738" y="37"/>
      <point x="541.865" y="37" type="curve" smooth="yes"/>
      <point x="593.418" y="37"/>
      <point x="645.736" y="78.739"/>
      <point x="656.845" y="131" type="curve" smooth="yes"/>
      <point x="668.306" y="184.92"/>
      <point x="633.71" y="226"/>
    </contour>
    <contour>
      <point x="938.666" y="276" type="curve" smooth="yes"/>
      <point x="1018.76" y="276"/>
      <point x="1069.87" y="211.09"/>
      <point x="1052.84" y="131" type="curve" smooth="yes"/>
      <point x="1035.86" y="51.0861"/>
      <point x="956.934" y="-14"/>
      <point x="877.024" y="-14" type="curve" smooth="yes"/>
      <point x="796.931" y="-14"/>
      <point x="745.821" y="50.9104"/>
      <point x="762.845" y="131" type="curve" smooth="yes"/>
      <point x="779.831" y="210.914"/>
      <point x="858.756" y="276"/>
    </contour>
    <contour>
      <point x="928.038" y="226" type="curve" smooth="yes"/>
      <point x="875.117" y="226"/>
      <point x="824.275" y="184.775"/>
      <point x="812.845" y="131" type="curve" smooth="yes"/>
      <point x="801.706" y="78.5947"/>
      <point x="834.826" y="37"/>
      <point x="887.865" y="37" type="curve" smooth="yes"/>
      <point x="939.436" y="37"/>
      <point x="989.735" y="78.7327"/>
      <point x="1000.84" y="131" type="curve" smooth="yes"/>
      <point x="1012.3" y="184.914"/>
      <point x="979.727" y="226"/>
    </contour>
  </outline>
</glyph>
<glyph name="Euro" format="1">
  <advance width="422"/>
  <unicode hex="20AC"/>
  <outline>
    <component base="C"/>
    <contour>
      <point x="83.9213" y="376" type="line"/>
      <point x="95.6119" y="431" type="line"/>
      <point x="444.612" y="431" type="line"/>
      <point x="432.921" y="376" type="line"/>
    </contour>
    <contour>
      <point x="61.8154" y="272" type="line"/>
      <point x="73.506" y="327" type="line"/>
      <point x="422.506" y="327" type="line"/>
      <point x="410.815" y="272" type="line"/>
    </contour>
  </outline>
</glyph>
<glyph name="y_lower_alt" format="1">
  <advance width="506"/>
  <unicode hex="9998"/>
  <outline>
    <contour>
      <point x="71.3631" y="-210" type="line"/>
      <point x="219.251" y="20" type="line"/>
      <point x="125.404" y="510" type="line"/>
      <point x="189.404" y="510" type="line"/>
      <point x="262.28" y="86" type="line"/>
      <point x="530.404" y="510" type="line"/>
      <point x="592.404" y="510" type="line"/>
      <point x="129.363" y="-210" type="line"/>
    </contour>
  </outline>
</glyph>
<glyph name="commaturnedabovecomb" format="1">
  <advance width="266"/>
  <outline>
    <contour>
      <point x="320.222" y="716" type="line"/>
      <point x="293.502" y="690.667"/>
      <point x="281.479" y="662.333"/>
      <point x="274.277" y="641" type="curve"/>
      <point x="288.376" y="638.333"/>
      <point x="297.946" y="625.333"/>
      <point x="294.261" y="608" type="curve" smooth="yes"/>
      <point x="290.576" y="590.667"/>
      <point x="272.912" y="575"/>
      <point x="254.245" y="575" type="curve" smooth="yes"/>
      <point x="235.578" y="575"/>
      <point x="224.342" y="588"/>
      <point x="227.261" y="608" type="curve"/>
      <point x="240.483" y="670.191"/>
      <point x="283.47" y="711.83"/>
      <point x="305.773" y="728" type="curve"/>
    </contour>
  </outline>
</glyph>
<glyph name="dieresistonoscomb" format="1">
  <advance width="266"/>
  <outline>
    <contour>
      <point x="233.664" y="690" type="curve" smooth="yes"/>
      <point x="229.696" y="671.333"/>
      <point x="212.316" y="657"/>
      <point x="193.65" y="657" type="curve" smooth="yes"/>
      <point x="174.983" y="657"/>
      <point x="162.696" y="671.333"/>
      <point x="166.664" y="690" type="curve" smooth="yes"/>
      <point x="170.632" y="708.667"/>
      <point x="189.012" y="723"/>
      <point x="207.678" y="723" type="curve" smooth="yes"/>
      <point x="226.345" y="723"/>
      <point x="237.632" y="708.667"/>
    </contour>
    <contour>
      <point x="391.664" y="690" type="curve" smooth="yes"/>
      <point x="387.696" y="671.333"/>
      <point x="369.316" y="657"/>
      <point x="350.65" y="657" type="curve" smooth="yes"/>
      <point x="333.316" y="657"/>
      <point x="320.696" y="671.333"/>
      <point x="324.664" y="690" type="curve" smooth="yes"/>
      <point x="328.632" y="708.667"/>
      <point x="347.345" y="723"/>
      <point x="364.678" y="723" type="curve" smooth="yes"/>
      <point x="383.345" y="723"/>
      <point x="395.632" y="708.667"/>
    </contour>
    <contour>
      <point x="369.808" y="813" type="curve"/>
      <point x="300.017" y="734" type="line"/>
      <point x="264.017" y="734" type="line"/>
      <point x="324.547" y="840" type="line" smooth="yes"/>
      <point x="335.182" y="858.667"/>
      <point x="357.733" y="870.667"/>
      <point x="372.799" y="860" type="curve"/>
      <point x="389.481" y="850.667"/>
      <point x="384.926" y="827.667"/>
    </contour>
  </outline>
</glyph>
<glyph name="gamma_gamma" format="1">
  <advance width="869"/>
  <outline>
    <contour>
      <point x="542" y="500" type="line"/>
      <point x="252" y="-58" type="line" smooth="yes"/>
      <point x="210" y="-139"/>
      <point x="175" y="-199"/>
      <point x="72.5" y="-199" type="curve"/>
      <point x="72.5" y="-156" type="line"/>
      <point x="128" y="-154"/>
      <point x="162" y="-123"/>
      <point x="185" y="-79" type="curve" smooth="yes"/>
      <point x="222" y="-6" type="line"/>
      <point x="170" y="17"/>
      <point x="161" y="70"/>
      <point x="156" y="129" type="curve" smooth="yes"/>
      <point x="127" y="500" type="line"/>
      <point x="184" y="500" type="line"/>
      <point x="213" y="140" type="line" smooth="yes"/>
      <point x="219" y="75"/>
      <point x="229" y="55"/>
      <point x="249" y="43" type="curve"/>
      <point x="485" y="500" type="line"/>
    </contour>
    <contour>
      <point x="945" y="479" type="line"/>
      <point x="884" y="460"/>
      <point x="847" y="399"/>
      <point x="835" y="375" type="curve" smooth="yes"/>
      <point x="612" y="-58" type="line" smooth="yes"/>
      <point x="570" y="-139"/>
      <point x="535" y="-199"/>
      <point x="432.5" y="-199" type="curve"/>
      <point x="432.5" y="-156" type="line"/>
      <point x="488" y="-154"/>
      <point x="522" y="-123"/>
      <point x="545" y="-79" type="curve" smooth="yes"/>
      <point x="582" y="-6" type="line"/>
      <point x="530" y="17"/>
      <point x="521" y="70"/>
      <point x="516" y="129" type="curve" smooth="yes"/>
      <point x="487" y="500" type="line"/>
      <point x="544" y="500" type="line"/>
      <point x="573" y="140" type="line" smooth="yes"/>
      <point x="578" y="75"/>
      <point x="589" y="55"/>
      <point x="609" y="43" type="curve"/>
      <point x="787" y="387" type="line" smooth="yes"/>
      <point x="825" y="459"/>
      <point x="854" y="498"/>
      <point x="915" y="510" type="curve"/>
    </contour>
  </outline>
</glyph>
<glyph name="gamma_kappa" format="1">
  <advance width="884"/>
  <outline>
    <contour>
      <point x="601" y="469" type="line"/>
      <point x="547" y="469"/>
      <point x="514" y="450"/>
      <point x="486" y="395" type="curve" smooth="yes"/>
      <point x="252" y="-58" type="line" smooth="yes"/>
      <point x="211" y="-140"/>
      <point x="174" y="-199"/>
      <point x="73" y="-199" type="curve"/>
      <point x="72" y="-156" type="line"/>
      <point x="128" y="-154"/>
      <point x="162" y="-123"/>
      <point x="185" y="-79" type="curve" smooth="yes"/>
      <point x="222" y="-6" type="line"/>
      <point x="170" y="17"/>
      <point x="161" y="70"/>
      <point x="156" y="129" type="curve" smooth="yes"/>
      <point x="127" y="500" type="line"/>
      <point x="184" y="500" type="line"/>
      <point x="213" y="140" type="line" smooth="yes"/>
      <point x="219" y="75"/>
      <point x="229" y="55"/>
      <point x="249" y="43" type="curve"/>
      <point x="438" y="407" type="line" smooth="yes"/>
      <point x="472" y="473"/>
      <point x="514" y="512"/>
      <point x="597" y="512" type="curve"/>
      <point x="601" y="506" type="line"/>
    </contour>
    <contour>
      <point x="790" y="118" type="line" smooth="yes"/>
      <point x="814" y="71"/>
      <point x="840" y="47"/>
      <point x="866" y="47" type="curve"/>
      <point x="858" y="-1" type="line"/>
      <point x="785" y="-1"/>
      <point x="756" y="55"/>
      <point x="728" y="111" type="curve" smooth="yes"/>
      <point x="654" y="254" type="line"/>
      <point x="587" y="198" type="line"/>
      <point x="545" y="0" type="line"/>
      <point x="488" y="0" type="line"/>
      <point x="597" y="512" type="line"/>
      <point x="650" y="499" type="line"/>
      <point x="603" y="274" type="line"/>
      <point x="858" y="501" type="line"/>
      <point x="933" y="501" type="line"/>
      <point x="700" y="296" type="line"/>
    </contour>
  </outline>
</glyph>
<glyph name="lambda_lambda" format="1">
  <advance width="867"/>
  <outline>
    <contour>
      <point x="435" y="-1" type="line"/>
      <point x="380" y="-1" type="line"/>
      <point x="340" y="456" type="line"/>
      <point x="315" y="443"/>
      <point x="294" y="423"/>
      <point x="262" y="360" type="curve" smooth="yes"/>
      <point x="80" y="-1" type="line"/>
      <point x="23" y="-1" type="line"/>
      <point x="210" y="371" type="line" smooth="yes"/>
      <point x="240" y="430"/>
      <point x="274" y="484"/>
      <point x="335" y="506" type="curve"/>
      <point x="328" y="578" type="line" smooth="yes"/>
      <point x="324" y="621"/>
      <point x="300" y="654"/>
      <point x="246" y="654" type="curve"/>
      <point x="265" y="697" type="line"/>
      <point x="364" y="697"/>
      <point x="378" y="641"/>
      <point x="386" y="557" type="curve" smooth="yes"/>
    </contour>
    <contour>
      <point x="788" y="124" type="line" smooth="yes"/>
      <point x="790" y="102"/>
      <point x="800" y="38"/>
      <point x="854" y="20" type="curve"/>
      <point x="810" y="-11" type="line"/>
      <point x="753" y="4"/>
      <point x="740" y="40"/>
      <point x="734" y="112" type="curve" smooth="yes"/>
      <point x="704" y="456" type="line"/>
      <point x="679" y="443"/>
      <point x="657" y="423"/>
      <point x="625" y="360" type="curve" smooth="yes"/>
      <point x="443" y="-1" type="line"/>
      <point x="387" y="-1" type="line"/>
      <point x="574" y="371" type="line" smooth="yes"/>
      <point x="604" y="430"/>
      <point x="638" y="484"/>
      <point x="699" y="506" type="curve"/>
      <point x="692" y="578" type="line" smooth="yes"/>
      <point x="688" y="621"/>
      <point x="664" y="654"/>
      <point x="610" y="654" type="curve"/>
      <point x="629" y="697" type="line"/>
      <point x="728" y="697"/>
      <point x="742" y="641"/>
      <point x="750" y="557" type="curve" smooth="yes"/>
    </contour>
  </outline>
</glyph>
<glyph name="t_t" format="1">
  <advance width="396"/>
  <outline>
    <component base="t" xOffset="151"/>
    <contour>
      <point x="124.908" y="132.37" type="line" smooth="yes"/>
      <point x="113.609" y="79.2212"/>
      <point x="128.422" y="45.126"/>
      <point x="169.347" y="30.084" type="curve"/>
      <point x="143.132" y="-13.0364" type="line"/>
      <point x="74.6176" y="9.0252"/>
      <point x="52.122" y="54.1512"/>
      <point x="68.7516" y="132.37" type="curve" smooth="yes"/>
      <point x="189.423" y="699.954" type="line"/>
      <point x="245.58" y="699.954" type="line"/>
      <point x="203.153" y="500.397" type="line"/>
      <point x="311.455" y="500.397" type="line"/>
      <point x="298.363" y="448.252" type="line"/>
      <point x="192.066" y="448.252" type="line"/>
    </contour>
  </outline>
</glyph>
<glyph name="uni030B" format="1">
  <advance width="266"/>
  <outline>
    <contour>
      <point x="214" y="580" type="line"/>
      <point x="179" y="580" type="line"/>
      <point x="239" y="686" type="line" smooth="yes"/>
      <point x="250" y="705"/>
      <point x="272" y="717"/>
      <point x="288" y="706" type="curve"/>
      <point x="304" y="697"/>
      <point x="300" y="673"/>
      <point x="284" y="658" type="curve"/>
    </contour>
    <contour>
      <point x="326" y="580" type="line"/>
      <point x="291" y="580" type="line"/>
      <point x="350" y="686" type="line" smooth="yes"/>
      <point x="361" y="705"/>
      <point x="383" y="717"/>
      <point x="399" y="706" type="curve"/>
      <point x="415" y="697"/>
      <point x="412" y="673"/>
      <point x="395" y="658" type="curve"/>
    </contour>
  </outline>
</glyph>
<glyph name="uni030C" format="1">
  <advance width="266"/>
  <outline>
    <contour>
      <point x="414" y="715" type="line"/>
      <point x="255" y="587" type="line"/>
      <point x="154" y="713" type="line"/>
      <point x="201" y="751" type="line"/>
      <point x="271" y="663" type="line"/>
      <point x="383" y="752" type="line"/>
    </contour>
  </outline>
</glyph>
<glyph name="uni0328" format="1">
  <advance width="266"/>
  <outline>
    <contour>
      <point x="163" y="11" type="line"/>
      <point x="161" y="2" type="line"/>
      <point x="64" y="-122" type="line" smooth="yes"/>
      <point x="45" y="-145"/>
      <point x="41" y="-165"/>
      <point x="49" y="-177" type="curve"/>
      <point x="56" y="-189"/>
      <point x="72" y="-192"/>
      <point x="99" y="-184" type="curve" smooth="yes"/>
      <point x="114" y="-179"/>
      <point x="128" y="-174"/>
      <point x="141" y="-170" type="curve" smooth="yes"/>
      <point x="154" y="-166"/>
      <point x="165" y="-162"/>
      <point x="174" y="-159" type="curve"/>
      <point x="185" y="-156"/>
      <point x="195" y="-153"/>
      <point x="204" y="-150" type="curve"/>
      <point x="213" y="-189" type="line"/>
      <point x="213" y="-189"/>
      <point x="208" y="-191"/>
      <point x="199" y="-194" type="curve" smooth="yes"/>
      <point x="179" y="-201"/>
      <point x="151" y="-210"/>
      <point x="127" y="-218" type="curve" smooth="yes"/>
      <point x="114" y="-222"/>
      <point x="106" y="-225"/>
      <point x="101" y="-226" type="curve"/>
      <point x="54" y="-238"/>
      <point x="22" y="-227"/>
      <point x="10" y="-203" type="curve"/>
      <point x="-3" y="-180"/>
      <point x="2" y="-144"/>
      <point x="30" y="-108" type="curve" smooth="yes"/>
      <point x="117" y="3" type="line"/>
      <point x="118" y="8" type="line"/>
    </contour>
  </outline>
</glyph>
